<?xml version="1.0" standalone="no"?>
<!DOCTYPE svg PUBLIC "-//W3C//DTD SVG 20010904//EN"
 "http://www.w3.org/TR/2001/REC-SVG-20010904/DTD/svg10.dtd">
<svg version="1.0" xmlns="http://www.w3.org/2000/svg"
 width="850.000000pt" height="995.000000pt" viewBox="0 0 850.000000 995.000000"
 preserveAspectRatio="xMidYMid meet">
<metadata>
Created by potrace 1.16, written by Peter Selinger 2001-2019
</metadata>
<g transform="translate(0.000000,995.000000) scale(0.100000,-0.100000)"
fill="#000000" stroke="none">
<path d="M5918 9609 c-28 -49 -68 -126 -68 -132 0 -3 23 -7 51 -11 45 -6 53
-4 66 13 19 28 35 27 138 -15 112 -45 118 -50 110 -86 -4 -18 -3 -28 5 -28 19
0 132 -71 158 -99 19 -21 25 -23 32 -11 21 32 60 168 54 184 -8 21 -98 83
-190 130 -106 54 -200 86 -269 93 l-62 6 -25 -44z"/>
<path d="M5986 9482 c-3 -5 1 -9 9 -9 8 0 15 4 15 9 0 4 -4 8 -9 8 -6 0 -12
-4 -15 -8z"/>
<path d="M5973 9385 c0 -22 2 -30 4 -17 2 12 2 30 0 40 -3 9 -5 -1 -4 -23z"/>
<path d="M6170 9406 c0 -2 7 -7 16 -10 8 -3 12 -2 9 4 -6 10 -25 14 -25 6z"/>
<path d="M5464 8718 c-431 -861 -734 -1485 -734 -1508 0 -10 -4 -20 -9 -22
-22 -8 -642 -1359 -915 -1993 -59 -137 -116 -268 -126 -290 -10 -22 -21 -54
-25 -70 -5 -26 -3 -31 15 -31 11 0 20 7 20 14 0 9 -6 12 -16 8 -8 -3 -12 -2
-9 4 12 19 50 4 53 -21 7 -56 23 -78 71 -95 25 -9 89 -36 141 -60 215 -97 306
-134 328 -134 14 0 41 9 62 21 l37 21 42 -26 c44 -28 48 -38 26 -76 -8 -14
-14 -34 -14 -45 0 -14 2 -16 6 -5 3 8 28 62 56 120 27 58 90 197 139 310 49
113 96 216 103 230 7 14 50 113 95 220 74 174 361 838 395 915 7 17 42 100 78
185 36 85 83 198 105 250 175 415 457 1116 612 1520 54 140 150 388 212 550
63 162 125 324 138 359 l24 64 -35 29 c-19 16 -58 44 -87 61 -29 18 -50 37
-48 43 8 20 -5 23 -26 6 -22 -18 -84 -138 -183 -351 -35 -75 -102 -219 -150
-321 -48 -102 -120 -257 -160 -345 -40 -88 -98 -214 -130 -280 -59 -125 -473
-1033 -542 -1190 -46 -104 -47 -104 -153 -61 -89 37 -110 48 -110 58 0 6 95
225 150 343 5 11 47 108 93 215 47 107 115 263 152 345 67 150 148 333 210
475 69 160 407 903 474 1043 39 81 71 153 71 161 0 13 -41 26 -81 26 -15 0
-89 -140 -355 -672z m-684 -1997 c0 -5 -11 -34 -25 -65 -14 -31 -25 -65 -25
-76 0 -11 -5 -20 -10 -20 -6 0 -15 -11 -20 -25 -6 -15 -21 -51 -35 -80 -14
-30 -36 -79 -50 -109 -14 -30 -25 -57 -25 -61 0 -3 -22 -52 -49 -108 -27 -56
-64 -140 -84 -187 -19 -47 -48 -114 -65 -150 -43 -94 -178 -400 -223 -505 -21
-49 -49 -111 -63 -137 l-23 -47 36 -3 c28 -2 36 -7 36 -22 0 -11 -6 -21 -12
-23 -7 -3 -13 2 -13 11 0 19 -10 20 -44 5 -14 -7 -26 -21 -28 -32 -2 -11 -9
-23 -17 -25 -10 -3 -12 0 -8 12 7 18 -8 22 -19 5 -4 -7 1 -16 10 -21 20 -11
21 -32 1 -48 -9 -7 -13 -15 -10 -18 3 -3 -2 -16 -10 -29 -12 -17 -12 -23 -3
-23 38 1 57 16 87 71 18 32 37 59 42 59 14 0 11 -7 -26 -72 -19 -33 -33 -64
-30 -69 11 -16 44 -9 50 11 3 11 13 20 22 20 13 0 13 -3 3 -15 -7 -8 -10 -21
-7 -29 5 -12 -3 -14 -46 -9 -29 3 -54 10 -57 14 -3 5 -18 5 -34 1 -22 -6 -31
-18 -47 -62 -10 -30 -23 -58 -29 -64 -5 -5 -10 -14 -10 -18 0 -16 310 -158
346 -158 9 0 34 10 55 22 37 21 40 21 76 4 63 -28 83 -48 77 -73 -8 -28 -23
-29 -76 -2 l-41 21 -42 -21 c-23 -12 -48 -21 -55 -21 -7 0 -68 25 -136 55 -68
31 -153 67 -190 81 -79 29 -143 61 -166 81 -9 9 -20 35 -24 60 -5 34 -12 46
-30 53 -29 11 -32 24 -4 17 21 -5 28 7 10 18 -23 14 -7 22 24 13 29 -9 35 -17
41 -47 11 -66 15 -70 67 -86 63 -18 58 -18 58 0 0 9 12 39 26 67 21 41 23 52
12 59 -7 5 -16 9 -20 9 -5 0 -8 9 -8 20 0 12 15 29 41 46 38 24 40 27 25 43
-9 10 -16 20 -16 24 0 10 64 67 82 72 9 3 19 19 23 35 4 16 17 51 29 77 49
101 88 187 200 443 65 146 128 289 142 318 13 29 24 55 24 57 0 2 17 40 38 83
22 43 44 92 49 108 22 63 157 359 165 362 4 2 8 12 8 22 0 24 31 90 42 90 4 0
8 -4 8 -9z m-590 -1720 c0 -5 -7 -11 -15 -15 -9 -3 -15 0 -15 9 0 8 7 15 15
15 8 0 15 -4 15 -9z m46 -46 c-3 -8 -1 -15 4 -15 6 0 10 -4 10 -9 0 -5 -8 -8
-17 -7 -9 0 -22 -10 -29 -22 -7 -15 -14 -20 -19 -12 -4 6 -1 17 5 25 7 8 9 15
4 15 -8 0 36 39 45 40 2 0 1 -7 -3 -15z m79 -59 c0 -11 -7 -21 -15 -23 -13 -4
-13 -3 0 6 12 8 12 13 3 22 -9 9 -16 9 -27 -1 -9 -7 -13 -16 -10 -21 3 -5 0
-9 -6 -9 -7 0 -10 -7 -6 -15 3 -8 1 -15 -4 -15 -17 0 -11 36 11 59 24 26 54
24 54 -3z"/>
<path d="M3957 4973 c-12 -11 -8 -23 7 -23 8 0 16 7 20 15 5 15 -14 21 -27 8z"/>
<path d="M5956 9299 c-4 -23 -5 -44 -2 -46 2 -2 7 14 11 37 4 23 5 43 2 46 -2
3 -7 -14 -11 -37z"/>
<path d="M3621 4734 c0 -11 3 -14 6 -6 3 7 2 16 -1 19 -3 4 -6 -2 -5 -13z"/>
<path d="M3577 4647 c-7 -20 -14 -16 132 -66 51 -18 95 -31 97 -29 4 5 -187
88 -203 88 -6 0 -13 5 -15 12 -3 7 -7 5 -11 -5z"/>
<path d="M3615 4550 c-18 -8 -18 -9 5 -10 14 0 50 -9 80 -20 72 -24 77 -17 9
15 -59 27 -64 28 -94 15z"/>
<path d="M3866 4521 c5 -5 56 -31 114 -56 212 -93 266 -119 293 -138 16 -10
31 -16 34 -13 4 3 4 8 2 10 -10 9 -341 167 -390 185 -61 24 -67 25 -53 12z"/>
<path d="M3531 4414 c-11 -14 -23 -35 -27 -47 -3 -12 -18 -47 -31 -77 -155
-342 -653 -1541 -653 -1571 0 -10 -4 -19 -8 -21 -30 -12 -581 -1485 -569
-1522 2 -6 11 11 20 38 11 32 40 75 85 125 100 111 151 176 211 269 52 79 64
89 116 93 39 3 45 -1 66 -43 l22 -42 -21 -121 c-28 -159 -34 -257 -22 -352
l10 -79 -54 -99 c-30 -55 -72 -124 -93 -154 -54 -78 -60 -90 -34 -67 25 23
136 185 206 301 26 44 51 82 54 85 16 13 567 1107 706 1400 37 80 93 197 123
260 30 63 108 232 174 375 390 842 446 975 408 975 -4 0 -84 37 -176 81 -93
45 -186 84 -206 86 -21 3 -38 10 -38 14 0 5 -6 9 -13 9 -7 0 -30 10 -52 22
-22 11 -72 36 -112 54 l-72 33 -20 -25z m109 -371 c-61 -142 -118 -271 -125
-288 -8 -16 -60 -136 -115 -265 -153 -354 -384 -886 -418 -965 -99 -226 -162
-379 -162 -395 0 -10 -4 -20 -9 -22 -5 -1 -20 -30 -34 -63 -125 -299 -139
-327 -153 -312 -8 7 -7 9 81 217 31 74 66 160 78 190 11 30 23 57 27 60 3 3
13 30 24 60 10 30 29 77 41 105 13 27 37 86 55 130 62 154 257 603 457 1055
53 118 111 251 130 295 81 189 198 441 212 458 36 42 16 -15 -89 -260z"/>
<path d="M4390 4375 c-7 -9 -8 -15 -2 -15 5 0 12 7 16 15 3 8 4 15 2 15 -2 0
-9 -7 -16 -15z"/>
<path d="M4363 4318 c1 -8 -7 -12 -23 -11 l-25 3 23 -12 c19 -9 25 -9 33 3 12
19 11 29 -1 29 -5 0 -9 -6 -7 -12z"/>
<path d="M4248 4274 c19 -15 29 -30 25 -37 -4 -7 1 -6 10 2 22 18 22 18 -15
41 -47 28 -59 25 -20 -6z"/>
<path d="M2253 728 c-6 -7 -7 -22 -3 -33 4 -12 0 -39 -11 -68 -27 -67 -23 -72
6 -9 16 34 32 56 45 59 16 4 20 12 18 32 -3 29 -38 41 -55 19z"/>
</g>
</svg>
