<?xml version="1.0" standalone="no"?>
<!DOCTYPE svg PUBLIC "-//W3C//DTD SVG 20010904//EN"
 "http://www.w3.org/TR/2001/REC-SVG-20010904/DTD/svg10.dtd">
<svg version="1.0" xmlns="http://www.w3.org/2000/svg"
 width="786.000000pt" height="1017.000000pt" viewBox="0 0 786.000000 1017.000000"
 preserveAspectRatio="xMidYMid meet">
<metadata>
Created by potrace 1.16, written by Peter Selinger 2001-2019
</metadata>
<g transform="translate(0.000000,1017.000000) scale(0.100000,-0.100000)"
fill="#000000" stroke="none">
<path d="M610 9840 c0 -109 2 -130 15 -130 13 0 15 21 15 130 0 109 -2 130
-15 130 -13 0 -15 -21 -15 -130z"/>
<path d="M5280 9840 c0 -109 2 -130 15 -130 13 0 15 21 15 130 0 109 -2 130
-15 130 -13 0 -15 -21 -15 -130z"/>
<path d="M5625 9940 c-24 -26 -44 -88 -44 -135 0 -47 20 -109 44 -135 27 -30
37 -12 12 21 -19 26 -22 43 -22 114 0 71 3 88 22 114 25 33 15 51 -12 21z"/>
<path d="M5830 9955 c0 -6 9 -28 20 -50 14 -26 20 -59 20 -100 0 -41 -6 -74
-20 -100 -27 -53 -25 -66 5 -32 59 66 59 198 0 264 -13 16 -25 23 -25 18z"/>
<path d="M1930 9839 c-25 -61 -46 -115 -48 -120 -2 -5 3 -9 11 -9 8 0 22 18
31 40 15 39 17 40 64 40 48 0 49 -1 65 -40 8 -22 22 -40 31 -40 11 0 4 27 -34
118 -26 64 -54 118 -62 120 -8 1 -29 -38 -58 -109z m84 9 l15 -38 -41 0 c-34
0 -39 3 -33 18 4 9 12 30 17 45 12 32 20 28 42 -25z"/>
<path d="M3905 9925 c-14 -13 -25 -31 -25 -38 0 -27 35 -57 80 -70 84 -24 58
-93 -32 -85 -47 5 -64 -4 -32 -16 48 -18 119 2 136 39 18 41 -2 72 -56 86 -53
13 -70 30 -61 58 7 24 44 36 85 27 31 -6 42 7 14 18 -36 14 -85 6 -109 -19z"/>
<path d="M4340 9935 c0 -8 7 -15 15 -15 8 0 15 7 15 15 0 8 -7 15 -15 15 -8 0
-15 -7 -15 -15z"/>
<path d="M5370 9935 c0 -8 7 -15 15 -15 8 0 15 7 15 15 0 8 -7 15 -15 15 -8 0
-15 -7 -15 -15z"/>
<path d="M5690 9905 c0 -33 4 -45 15 -45 11 0 15 12 15 45 0 33 -4 45 -15 45
-11 0 -15 -12 -15 -45z"/>
<path d="M5760 9905 c0 -33 4 -45 15 -45 11 0 15 12 15 45 0 33 -4 45 -15 45
-11 0 -15 -12 -15 -45z"/>
<path d="M890 9905 c0 -18 -5 -25 -20 -25 -11 0 -20 -4 -20 -10 0 -5 9 -10 20
-10 18 0 20 -7 20 -63 0 -36 5 -68 12 -75 14 -14 68 -16 68 -2 0 6 -11 10 -24
10 -29 0 -36 16 -36 81 0 46 2 49 25 49 14 0 25 5 25 10 0 6 -11 10 -25 10
-20 0 -25 5 -25 25 0 14 -4 25 -10 25 -5 0 -10 -11 -10 -25z"/>
<path d="M1090 9905 c0 -18 -5 -25 -20 -25 -11 0 -20 -4 -20 -10 0 -5 9 -10
20 -10 18 0 20 -7 20 -63 0 -36 5 -68 12 -75 14 -14 68 -16 68 -2 0 6 -11 10
-24 10 -29 0 -36 16 -36 81 0 46 2 49 25 49 14 0 25 5 25 10 0 6 -11 10 -25
10 -20 0 -25 5 -25 25 0 14 -4 25 -10 25 -5 0 -10 -11 -10 -25z"/>
<path d="M3080 9905 c0 -18 -5 -25 -20 -25 -11 0 -20 -4 -20 -10 0 -5 9 -10
20 -10 18 0 20 -7 20 -63 0 -36 5 -68 12 -75 14 -14 68 -16 68 -2 0 6 -11 10
-24 10 -29 0 -36 16 -36 81 0 46 2 49 25 49 14 0 25 5 25 10 0 6 -11 10 -25
10 -20 0 -25 5 -25 25 0 14 -4 25 -10 25 -5 0 -10 -11 -10 -25z"/>
<path d="M4100 9905 c0 -18 -5 -25 -20 -25 -11 0 -20 -4 -20 -10 0 -5 9 -10
20 -10 18 0 20 -7 20 -63 0 -36 5 -68 12 -75 14 -14 68 -16 68 -2 0 6 -11 10
-24 10 -29 0 -36 16 -36 81 0 46 2 49 25 49 14 0 25 5 25 10 0 6 -11 10 -25
10 -20 0 -25 5 -25 25 0 14 -4 25 -10 25 -5 0 -10 -11 -10 -25z"/>
<path d="M5470 9905 c0 -18 -5 -25 -20 -25 -11 0 -20 -4 -20 -10 0 -5 9 -10
20 -10 18 0 20 -7 20 -63 0 -36 5 -68 12 -75 14 -14 68 -16 68 -2 0 6 -11 10
-24 10 -29 0 -36 16 -36 81 0 46 2 49 25 49 14 0 25 5 25 10 0 6 -11 10 -25
10 -20 0 -25 5 -25 25 0 14 -4 25 -10 25 -5 0 -10 -11 -10 -25z"/>
<path d="M715 9855 c-36 -35 -35 -96 2 -125 28 -22 93 -25 100 -4 2 6 -10 8
-31 6 -25 -3 -40 2 -55 17 -33 33 -25 41 39 41 65 0 72 8 49 53 -24 45 -67 50
-104 12z m79 -17 c14 -24 5 -30 -43 -26 -41 3 -41 3 -25 26 18 26 51 26 68 0z"/>
<path d="M1225 9855 c-36 -35 -35 -96 2 -125 28 -22 93 -25 100 -4 2 6 -10 8
-31 6 -25 -3 -40 2 -55 17 -33 33 -25 41 39 41 65 0 72 8 49 53 -24 45 -67 50
-104 12z m79 -17 c14 -24 5 -30 -43 -26 -41 3 -41 3 -25 26 18 26 51 26 68 0z"/>
<path d="M1390 9795 c0 -50 4 -85 10 -85 6 0 10 26 10 58 0 66 21 96 62 90 21
-3 23 -8 26 -75 2 -55 6 -73 17 -73 10 0 15 17 17 67 3 64 4 68 31 78 40 14
57 -12 57 -87 0 -32 4 -58 10 -58 17 0 12 136 -6 154 -19 20 -53 20 -81 1 -18
-13 -22 -13 -33 0 -15 18 -61 20 -79 3 -11 -10 -14 -10 -18 0 -13 35 -23 3
-23 -73z"/>
<path d="M1700 9755 c0 -77 4 -125 10 -125 6 0 10 20 10 45 l0 45 39 -6 c34
-5 43 -3 65 19 66 66 -5 179 -85 137 -13 -7 -19 -7 -19 0 0 5 -4 10 -10 10 -6
0 -10 -48 -10 -125z m108 93 c17 -17 15 -84 -4 -102 -18 -19 -38 -20 -65 -6
-26 14 -27 94 -1 109 23 14 55 14 70 -1z"/>
<path d="M2140 9795 c0 -50 4 -85 10 -85 6 0 10 26 10 58 0 62 18 92 53 92 9
0 17 5 17 10 0 13 -16 13 -43 -1 -16 -9 -22 -9 -25 0 -2 6 -8 11 -13 11 -5 0
-9 -38 -9 -85z"/>
<path d="M2260 9795 c0 -50 4 -85 10 -85 6 0 10 26 10 58 0 62 18 92 53 92 9
0 17 5 17 10 0 13 -16 13 -43 -1 -16 -9 -22 -9 -25 0 -2 6 -8 11 -13 11 -5 0
-9 -38 -9 -85z"/>
<path d="M2393 9873 c-26 -10 -12 -18 26 -15 32 3 41 0 51 -17 15 -29 7 -39
-28 -33 -44 6 -72 -13 -72 -48 0 -37 24 -50 84 -48 l46 2 0 68 c0 58 -3 69
-22 82 -22 16 -60 20 -85 9z m82 -108 c0 -29 -50 -44 -72 -22 -14 13 -14 19
-3 32 19 23 75 16 75 -10z"/>
<path d="M2543 9868 c3 -7 17 -44 33 -82 28 -71 28 -69 -1 -138 -5 -12 -3 -18
7 -18 11 0 64 109 116 242 2 4 -2 8 -10 8 -7 0 -24 -27 -37 -60 -14 -34 -27
-63 -31 -65 -3 -2 -17 25 -30 61 -14 36 -30 64 -38 64 -8 0 -12 -6 -9 -12z"/>
<path d="M3215 9855 c-36 -35 -35 -96 2 -125 28 -22 93 -25 100 -4 2 6 -10 8
-31 6 -25 -3 -40 2 -55 17 -33 33 -25 41 39 41 65 0 72 8 49 53 -24 45 -67 50
-104 12z m79 -17 c14 -24 5 -30 -43 -26 -41 3 -41 3 -25 26 18 26 51 26 68 0z"/>
<path d="M3380 9795 c0 -50 4 -85 10 -85 6 0 10 26 10 58 0 66 21 96 62 90 21
-3 23 -8 26 -75 2 -55 6 -73 17 -73 10 0 15 17 17 67 3 64 4 68 31 78 40 14
57 -12 57 -87 0 -32 4 -58 10 -58 17 0 12 136 -6 154 -19 20 -53 20 -81 1 -18
-13 -22 -13 -33 0 -15 18 -61 20 -79 3 -11 -10 -14 -10 -18 0 -13 35 -23 3
-23 -73z"/>
<path d="M3690 9755 c0 -77 4 -125 10 -125 6 0 10 20 10 45 l0 45 39 -6 c34
-5 43 -3 65 19 66 66 -5 179 -85 137 -13 -7 -19 -7 -19 0 0 5 -4 10 -10 10 -6
0 -10 -48 -10 -125z m108 93 c17 -17 15 -84 -4 -102 -18 -19 -38 -20 -65 -6
-26 14 -27 94 -1 109 23 14 55 14 70 -1z"/>
<path d="M4220 9795 c0 -50 4 -85 10 -85 6 0 10 26 10 58 0 62 18 92 53 92 9
0 17 5 17 10 0 13 -16 13 -43 -1 -16 -9 -22 -9 -25 0 -2 6 -8 11 -13 11 -5 0
-9 -38 -9 -85z"/>
<path d="M4340 9795 c0 -69 3 -85 15 -85 12 0 15 16 15 85 0 69 -3 85 -15 85
-12 0 -15 -16 -15 -85z"/>
<path d="M4430 9795 c0 -50 4 -85 10 -85 6 0 10 26 10 58 0 66 21 96 62 90 21
-3 23 -8 26 -75 2 -56 6 -73 17 -73 22 0 21 133 -1 154 -18 19 -47 20 -77 5
-16 -9 -22 -9 -25 0 -2 6 -8 11 -13 11 -5 0 -9 -38 -9 -85z"/>
<path d="M4645 9855 c-55 -55 -13 -154 61 -142 31 5 34 3 34 -18 0 -31 -31
-48 -76 -43 -21 2 -33 0 -31 -6 7 -21 81 -18 110 4 26 21 27 24 27 126 0 63
-4 104 -10 104 -5 0 -10 -5 -10 -10 0 -7 -6 -7 -19 0 -32 16 -60 12 -86 -15z
m79 -1 c12 -5 16 -20 16 -60 0 -50 -2 -54 -27 -60 -39 -10 -58 7 -61 55 -5 61
22 84 72 65z"/>
<path d="M4936 9864 c-29 -28 -14 -74 24 -74 9 0 25 -6 35 -14 29 -21 2 -49
-42 -44 -20 3 -32 0 -30 -6 5 -16 62 -19 87 -6 16 9 20 19 18 42 -2 26 -9 33
-38 43 -24 8 -35 18 -35 31 0 15 7 19 38 19 39 0 48 9 21 19 -28 11 -62 6 -78
-10z"/>
<path d="M5080 9755 c0 -77 4 -125 10 -125 6 0 10 20 10 45 l0 45 39 -6 c34
-5 43 -3 65 19 66 66 -5 179 -85 137 -13 -7 -19 -7 -19 0 0 5 -4 10 -10 10 -6
0 -10 -48 -10 -125z m108 93 c17 -17 15 -84 -4 -102 -18 -19 -38 -20 -65 -6
-26 14 -27 94 -1 109 23 14 55 14 70 -1z"/>
<path d="M5370 9795 c0 -69 3 -85 15 -85 12 0 15 16 15 85 0 69 -3 85 -15 85
-12 0 -15 -16 -15 -85z"/>
<path d="M2800 9840 c0 -6 32 -10 75 -10 43 0 75 4 75 10 0 6 -32 10 -75 10
-43 0 -75 -4 -75 -10z"/>
<path d="M5950 9835 c0 -8 9 -15 20 -15 11 0 20 7 20 15 0 8 -9 15 -20 15 -11
0 -20 -7 -20 -15z"/>
<path d="M2800 9780 c0 -6 32 -10 75 -10 43 0 75 4 75 10 0 6 -32 10 -75 10
-43 0 -75 -4 -75 -10z"/>
<path d="M4830 9730 c0 -13 7 -20 20 -20 13 0 20 7 20 20 0 13 -7 20 -20 20
-13 0 -20 -7 -20 -20z"/>
<path d="M5942 9705 c-15 -58 -15 -65 3 -65 8 0 15 3 15 8 0 4 7 28 15 55 13
44 13 47 -3 47 -13 0 -21 -13 -30 -45z"/>
<path d="M927 9052 c-10 -10 -17 -31 -17 -45 0 -17 -5 -27 -15 -27 -8 0 -15
-4 -15 -10 0 -5 7 -10 15 -10 12 0 15 -15 15 -75 0 -43 4 -75 10 -75 6 0 10
32 10 75 0 73 1 75 25 75 14 0 25 5 25 10 0 6 -11 10 -25 10 -16 0 -25 6 -25
16 0 29 21 54 45 54 14 0 25 5 25 10 0 17 -56 11 -73 -8z"/>
<path d="M2730 9021 l0 -50 -34 6 c-74 12 -116 -87 -61 -142 20 -21 33 -25 75
-23 l50 2 0 128 c0 107 -2 128 -15 128 -11 0 -15 -12 -15 -49z m-16 -67 c12
-5 16 -20 16 -59 0 -54 -8 -65 -50 -65 -26 0 -42 25 -42 65 0 55 29 77 76 59z"/>
<path d="M4967 9052 c-10 -10 -17 -31 -17 -45 0 -17 -5 -27 -15 -27 -8 0 -15
-4 -15 -10 0 -5 7 -10 15 -10 12 0 15 -15 15 -75 0 -43 4 -75 10 -75 6 0 10
32 10 75 0 73 1 75 25 75 14 0 25 5 25 10 0 6 -11 10 -25 10 -16 0 -25 6 -25
16 0 29 21 54 45 54 14 0 25 5 25 10 0 17 -56 11 -73 -8z"/>
<path d="M5240 8940 c0 -109 2 -130 15 -130 13 0 15 21 15 130 0 109 -2 130
-15 130 -13 0 -15 -21 -15 -130z"/>
<path d="M6010 8940 c0 -109 2 -130 15 -130 13 0 15 21 15 130 0 109 -2 130
-15 130 -13 0 -15 -21 -15 -130z"/>
<path d="M6500 8940 c0 -109 2 -130 15 -130 11 0 15 11 15 42 l0 42 43 -42
c58 -57 79 -53 27 5 l-41 47 43 37 c34 30 39 38 23 39 -10 0 -36 -17 -57 -37
l-38 -37 0 82 c0 66 -3 82 -15 82 -13 0 -15 -21 -15 -130z"/>
<path d="M621 8918 c-34 -144 -36 -158 -22 -158 11 0 12 1 46 150 14 63 28
121 30 128 2 6 -2 12 -9 12 -9 0 -24 -43 -45 -132z"/>
<path d="M721 8918 c-34 -144 -36 -158 -22 -158 11 0 12 1 46 150 14 63 28
121 30 128 2 6 -2 12 -9 12 -9 0 -24 -43 -45 -132z"/>
<path d="M810 9035 c0 -8 7 -15 15 -15 8 0 15 7 15 15 0 8 -7 15 -15 15 -8 0
-15 -7 -15 -15z"/>
<path d="M3240 9035 c0 -8 7 -15 15 -15 8 0 15 7 15 15 0 8 -7 15 -15 15 -8 0
-15 -7 -15 -15z"/>
<path d="M3490 9005 c0 -18 -5 -25 -20 -25 -11 0 -20 -4 -20 -10 0 -5 9 -10
20 -10 18 0 20 -7 20 -63 0 -36 5 -68 12 -75 14 -14 68 -16 68 -2 0 6 -11 10
-24 10 -29 0 -36 16 -36 81 0 46 2 49 25 49 14 0 25 5 25 10 0 6 -11 10 -25
10 -20 0 -25 5 -25 25 0 14 -4 25 -10 25 -5 0 -10 -11 -10 -25z"/>
<path d="M4240 9005 c0 -18 -5 -25 -20 -25 -11 0 -20 -4 -20 -10 0 -5 9 -10
20 -10 18 0 20 -7 20 -63 0 -36 5 -68 12 -75 14 -14 68 -16 68 -2 0 6 -11 10
-24 10 -29 0 -36 16 -36 81 0 46 2 49 25 49 14 0 25 5 25 10 0 6 -11 10 -25
10 -20 0 -25 5 -25 25 0 14 -4 25 -10 25 -5 0 -10 -11 -10 -25z"/>
<path d="M810 8895 c0 -69 3 -85 15 -85 12 0 15 16 15 85 0 69 -3 85 -15 85
-12 0 -15 -16 -15 -85z"/>
<path d="M1103 8973 c-26 -10 -12 -18 26 -15 32 3 41 0 51 -17 15 -29 7 -39
-28 -33 -44 6 -72 -13 -72 -48 0 -37 24 -50 84 -48 l46 2 0 68 c0 58 -3 69
-22 82 -22 16 -60 20 -85 9z m82 -108 c0 -29 -50 -44 -72 -22 -14 13 -14 19
-3 32 19 23 75 16 75 -10z"/>
<path d="M1270 8895 c0 -50 4 -85 10 -85 6 0 10 26 10 58 0 66 21 96 62 90 21
-3 23 -8 26 -75 2 -56 6 -73 17 -73 22 0 21 133 -1 154 -18 19 -47 20 -77 5
-16 -9 -22 -9 -25 0 -2 6 -8 11 -13 11 -5 0 -9 -38 -9 -85z"/>
<path d="M1555 8955 c-52 -51 -16 -145 55 -145 44 0 80 39 80 85 0 46 -36 85
-80 85 -19 0 -40 -9 -55 -25z m87 -7 c16 -13 21 -32 19 -76 -1 -31 -42 -49
-76 -34 -21 10 -25 18 -25 56 0 32 5 48 18 55 23 14 45 13 64 -1z"/>
<path d="M1740 8855 c0 -77 4 -125 10 -125 6 0 10 20 10 45 l0 45 39 -6 c34
-5 43 -3 65 19 66 66 -5 179 -85 137 -13 -7 -19 -7 -19 0 0 5 -4 10 -10 10 -6
0 -10 -48 -10 -125z m108 93 c17 -17 15 -84 -4 -102 -18 -19 -38 -20 -65 -6
-26 14 -27 94 -1 109 23 14 55 14 70 -1z"/>
<path d="M1955 8955 c-36 -35 -35 -96 2 -125 28 -22 93 -25 100 -4 2 6 -10 8
-31 6 -25 -3 -40 2 -55 17 -33 33 -25 41 39 41 65 0 72 8 49 53 -24 45 -67 50
-104 12z m79 -17 c14 -24 5 -30 -43 -26 -41 3 -41 3 -25 26 18 26 51 26 68 0z"/>
<path d="M2120 8895 c0 -50 4 -85 10 -85 6 0 10 26 10 58 0 62 18 92 53 92 9
0 17 5 17 10 0 13 -16 13 -43 -1 -16 -9 -22 -9 -25 0 -2 6 -8 11 -13 11 -5 0
-9 -38 -9 -85z"/>
<path d="M2253 8973 c-26 -10 -12 -18 26 -15 32 3 41 0 51 -17 15 -29 7 -39
-28 -33 -44 6 -72 -13 -72 -48 0 -37 24 -50 84 -48 l46 2 0 68 c0 58 -3 69
-22 82 -22 16 -60 20 -85 9z m82 -108 c0 -29 -50 -44 -72 -22 -14 13 -14 19
-3 32 19 23 75 16 75 -10z"/>
<path d="M2420 8895 c0 -50 4 -85 10 -85 6 0 10 26 10 58 0 66 21 96 62 90 21
-3 23 -8 26 -75 2 -56 6 -73 17 -73 22 0 21 133 -1 154 -18 19 -47 20 -77 5
-16 -9 -22 -9 -25 0 -2 6 -8 11 -13 11 -5 0 -9 -38 -9 -85z"/>
<path d="M2905 8955 c-36 -35 -35 -96 2 -125 28 -22 93 -25 100 -4 2 6 -10 8
-31 6 -25 -3 -40 2 -55 17 -33 33 -25 41 39 41 65 0 72 8 49 53 -24 45 -67 50
-104 12z m79 -17 c14 -24 5 -30 -43 -26 -41 3 -41 3 -25 26 18 26 51 26 68 0z"/>
<path d="M3079 8938 l31 -42 -23 -30 c-36 -47 -40 -56 -25 -56 7 0 24 16 37
35 l24 36 25 -36 c14 -19 31 -35 39 -35 18 0 17 2 -17 45 -31 39 -31 41 8 93
19 25 21 32 9 32 -9 0 -26 -14 -38 -32 l-23 -31 -26 31 c-39 48 -57 39 -21
-10z"/>
<path d="M3240 8895 c0 -69 3 -85 15 -85 12 0 15 16 15 85 0 69 -3 85 -15 85
-12 0 -15 -16 -15 -85z"/>
<path d="M3336 8964 c-29 -28 -14 -74 24 -74 9 0 25 -6 35 -14 29 -21 2 -49
-42 -44 -20 3 -32 0 -30 -6 5 -16 62 -19 87 -6 16 9 20 19 18 42 -2 26 -9 33
-38 43 -24 8 -35 18 -35 31 0 15 7 19 38 19 39 0 48 9 21 19 -28 11 -62 6 -78
-10z"/>
<path d="M3616 8964 c-29 -28 -14 -74 24 -74 9 0 25 -6 35 -14 29 -21 2 -49
-42 -44 -20 3 -32 0 -30 -6 5 -16 62 -19 87 -6 16 9 20 19 18 42 -2 26 -9 33
-38 43 -24 8 -35 18 -35 31 0 15 7 19 38 19 39 0 48 9 21 19 -28 11 -62 6 -78
-10z"/>
<path d="M3930 8895 c0 -50 4 -85 10 -85 6 0 10 26 10 58 0 62 18 92 53 92 9
0 17 5 17 10 0 13 -16 13 -43 -1 -16 -9 -22 -9 -25 0 -2 6 -8 11 -13 11 -5 0
-9 -38 -9 -85z"/>
<path d="M4065 8955 c-36 -35 -35 -96 2 -125 28 -22 93 -25 100 -4 2 6 -10 8
-31 6 -25 -3 -40 2 -55 17 -33 33 -25 41 39 41 65 0 72 8 49 53 -24 45 -67 50
-104 12z m79 -17 c14 -24 5 -30 -43 -26 -41 3 -41 3 -25 26 18 26 51 26 68 0z"/>
<path d="M4360 8911 c0 -61 3 -72 22 -85 12 -9 32 -16 43 -16 11 0 31 7 43 16
19 13 22 24 22 85 0 39 -4 69 -10 69 -5 0 -10 -25 -10 -56 0 -67 -13 -94 -45
-94 -32 0 -45 27 -45 94 0 31 -4 56 -10 56 -6 0 -10 -30 -10 -69z"/>
<path d="M4550 8895 c0 -50 4 -85 10 -85 6 0 10 26 10 58 0 62 18 92 53 92 9
0 17 5 17 10 0 13 -16 13 -43 -1 -16 -9 -22 -9 -25 0 -2 6 -8 11 -13 11 -5 0
-9 -38 -9 -85z"/>
<path d="M4670 8895 c0 -50 4 -85 10 -85 6 0 10 26 10 58 0 66 21 96 62 90 21
-3 23 -8 26 -75 2 -56 6 -73 17 -73 22 0 21 133 -1 154 -18 19 -47 20 -77 5
-16 -9 -22 -9 -25 0 -2 6 -8 11 -13 11 -5 0 -9 -38 -9 -85z"/>
<path d="M5073 8973 c-26 -10 -12 -18 26 -15 32 3 41 0 51 -17 15 -29 7 -39
-28 -33 -44 6 -72 -13 -72 -48 0 -37 24 -50 84 -48 l46 2 0 68 c0 58 -3 69
-22 82 -22 16 -60 20 -85 9z m82 -108 c0 -29 -50 -44 -72 -22 -14 13 -14 19
-3 32 19 23 75 16 75 -10z"/>
<path d="M5336 8964 c-29 -28 -14 -74 24 -74 9 0 25 -6 35 -14 29 -21 2 -49
-42 -44 -20 3 -32 0 -30 -6 5 -16 62 -19 87 -6 16 9 20 19 18 42 -2 26 -9 33
-38 43 -24 8 -35 18 -35 31 0 15 7 19 38 19 39 0 48 9 21 19 -28 11 -62 6 -78
-10z"/>
<path d="M5495 8955 c-36 -35 -35 -96 2 -125 28 -22 93 -25 100 -4 2 6 -10 8
-31 6 -25 -3 -40 2 -55 17 -33 33 -25 41 39 41 65 0 72 8 49 53 -24 45 -67 50
-104 12z m79 -17 c14 -24 5 -30 -43 -26 -41 3 -41 3 -25 26 18 26 51 26 68 0z"/>
<path d="M5845 8955 c-36 -35 -35 -96 2 -125 28 -22 93 -25 100 -4 2 6 -10 8
-31 6 -25 -3 -40 2 -55 17 -33 33 -25 41 39 41 65 0 72 8 49 53 -24 45 -67 50
-104 12z m79 -17 c14 -24 5 -30 -43 -26 -41 3 -41 3 -25 26 18 26 51 26 68 0z"/>
<path d="M6106 8964 c-29 -28 -14 -74 24 -74 9 0 25 -6 35 -14 29 -21 2 -49
-42 -44 -20 3 -32 0 -30 -6 5 -16 62 -19 87 -6 16 9 20 19 18 42 -2 26 -9 33
-38 43 -24 8 -35 18 -35 31 0 15 7 19 38 19 39 0 48 9 21 19 -28 11 -62 6 -78
-10z"/>
<path d="M6265 8955 c-36 -35 -35 -96 2 -125 28 -22 93 -25 100 -4 2 6 -10 8
-31 6 -25 -3 -40 2 -55 17 -33 33 -25 41 39 41 65 0 72 8 49 53 -24 45 -67 50
-104 12z m79 -17 c14 -24 5 -30 -43 -26 -41 3 -41 3 -25 26 18 26 51 26 68 0z"/>
<path d="M6695 8955 c-36 -35 -35 -96 2 -125 28 -22 93 -25 100 -4 2 6 -10 8
-31 6 -25 -3 -40 2 -55 17 -33 33 -25 41 39 41 65 0 72 8 49 53 -24 45 -67 50
-104 12z m79 -17 c14 -24 5 -30 -43 -26 -41 3 -41 3 -25 26 18 26 51 26 68 0z"/>
<path d="M6875 8955 c-36 -35 -35 -96 2 -125 28 -22 93 -25 100 -4 2 6 -10 8
-31 6 -25 -3 -40 2 -55 17 -33 33 -25 41 39 41 65 0 72 8 49 53 -24 45 -67 50
-104 12z m79 -17 c14 -24 5 -30 -43 -26 -41 3 -41 3 -25 26 18 26 51 26 68 0z"/>
<path d="M7040 8855 c0 -77 4 -125 10 -125 6 0 10 20 10 45 l0 45 39 -6 c34
-5 43 -3 65 19 66 66 -5 179 -85 137 -13 -7 -19 -7 -19 0 0 5 -4 10 -10 10 -6
0 -10 -48 -10 -125z m108 93 c17 -17 15 -84 -4 -102 -18 -19 -38 -20 -65 -6
-26 14 -27 94 -1 109 23 14 55 14 70 -1z"/>
<path d="M3752 8805 c-15 -58 -15 -65 3 -65 8 0 15 3 15 8 0 4 7 28 15 55 13
44 13 47 -3 47 -13 0 -21 -13 -30 -45z"/>
<path d="M5660 8830 c0 -13 7 -20 20 -20 13 0 20 7 20 20 0 13 -7 20 -20 20
-13 0 -20 -7 -20 -20z"/>
<path d="M1780 8490 c0 -107 3 -130 15 -130 11 0 15 16 17 67 3 64 4 68 31 78
40 14 57 -12 57 -87 0 -32 4 -58 10 -58 17 0 12 136 -6 154 -18 18 -47 20 -75
6 -18 -10 -19 -7 -19 45 0 42 -3 55 -15 55 -13 0 -15 -21 -15 -130z"/>
<path d="M2257 8602 c-10 -10 -17 -31 -17 -45 0 -17 -5 -27 -15 -27 -8 0 -15
-4 -15 -10 0 -5 7 -10 15 -10 12 0 15 -15 15 -75 0 -43 4 -75 10 -75 6 0 10
32 10 75 0 73 1 75 25 75 14 0 25 5 25 10 0 6 -11 10 -25 10 -16 0 -25 6 -25
16 0 29 21 54 45 54 14 0 25 5 25 10 0 17 -56 11 -73 -8z"/>
<path d="M730 8585 c0 -8 7 -15 15 -15 8 0 15 7 15 15 0 8 -7 15 -15 15 -8 0
-15 -7 -15 -15z"/>
<path d="M1290 8585 c0 -8 7 -15 15 -15 8 0 15 7 15 15 0 8 -7 15 -15 15 -8 0
-15 -7 -15 -15z"/>
<path d="M3030 8585 c0 -8 7 -15 15 -15 8 0 15 7 15 15 0 8 -7 15 -15 15 -8 0
-15 -7 -15 -15z"/>
<path d="M1660 8555 c0 -18 -5 -25 -20 -25 -11 0 -20 -4 -20 -10 0 -5 9 -10
20 -10 18 0 20 -7 20 -63 0 -36 5 -68 12 -75 14 -14 68 -16 68 -2 0 6 -11 10
-24 10 -29 0 -36 16 -36 81 0 46 2 49 25 49 14 0 25 5 25 10 0 6 -11 10 -25
10 -20 0 -25 5 -25 25 0 14 -4 25 -10 25 -5 0 -10 -11 -10 -25z"/>
<path d="M2910 8555 c0 -18 -5 -25 -20 -25 -11 0 -20 -4 -20 -10 0 -5 9 -10
20 -10 18 0 20 -7 20 -63 0 -36 5 -68 12 -75 14 -14 68 -16 68 -2 0 6 -11 10
-24 10 -29 0 -36 16 -36 81 0 46 2 49 25 49 14 0 25 5 25 10 0 6 -11 10 -25
10 -20 0 -25 5 -25 25 0 14 -4 25 -10 25 -5 0 -10 -11 -10 -25z"/>
<path d="M345 8505 c-55 -55 -13 -154 61 -142 31 5 34 3 34 -18 0 -31 -31 -48
-76 -43 -21 2 -33 0 -31 -6 7 -21 81 -18 110 4 26 21 27 24 27 126 0 63 -4
104 -10 104 -5 0 -10 -5 -10 -10 0 -7 -6 -7 -19 0 -32 16 -60 12 -86 -15z m79
-1 c12 -5 16 -20 16 -60 0 -50 -2 -54 -27 -60 -39 -10 -58 7 -61 55 -5 61 22
84 72 65z"/>
<path d="M545 8505 c-52 -51 -16 -145 55 -145 44 0 80 39 80 85 0 46 -36 85
-80 85 -19 0 -40 -9 -55 -25z m87 -7 c16 -13 21 -32 19 -76 -1 -31 -42 -49
-76 -34 -21 10 -25 18 -25 56 0 32 5 48 18 55 23 14 45 13 64 -1z"/>
<path d="M730 8445 c0 -69 3 -85 15 -85 12 0 15 16 15 85 0 69 -3 85 -15 85
-12 0 -15 -16 -15 -85z"/>
<path d="M820 8445 c0 -50 4 -85 10 -85 6 0 10 26 10 58 0 66 21 96 62 90 21
-3 23 -8 26 -75 2 -56 6 -73 17 -73 22 0 21 133 -1 154 -18 19 -47 20 -77 5
-16 -9 -22 -9 -25 0 -2 6 -8 11 -13 11 -5 0 -9 -38 -9 -85z"/>
<path d="M1035 8505 c-55 -55 -13 -154 61 -142 31 5 34 3 34 -18 0 -31 -31
-48 -76 -43 -21 2 -33 0 -31 -6 7 -21 81 -18 110 4 26 21 27 24 27 126 0 63
-4 104 -10 104 -5 0 -10 -5 -10 -10 0 -7 -6 -7 -19 0 -32 16 -60 12 -86 -15z
m79 -1 c12 -5 16 -20 16 -60 0 -50 -2 -54 -27 -60 -39 -10 -58 7 -61 55 -5 61
22 84 72 65z"/>
<path d="M1290 8445 c0 -69 3 -85 15 -85 12 0 15 16 15 85 0 69 -3 85 -15 85
-12 0 -15 -16 -15 -85z"/>
<path d="M1380 8445 c0 -50 4 -85 10 -85 6 0 10 26 10 58 0 66 21 96 62 90 21
-3 23 -8 26 -75 2 -56 6 -73 17 -73 22 0 21 133 -1 154 -18 19 -47 20 -77 5
-16 -9 -22 -9 -25 0 -2 6 -8 11 -13 11 -5 0 -9 -38 -9 -85z"/>
<path d="M1995 8505 c-36 -35 -35 -96 2 -125 28 -22 93 -25 100 -4 2 6 -10 8
-31 6 -25 -3 -40 2 -55 17 -33 33 -25 41 39 41 65 0 72 8 49 53 -24 45 -67 50
-104 12z m79 -17 c14 -24 5 -30 -43 -26 -41 3 -41 3 -25 26 18 26 51 26 68 0z"/>
<path d="M2350 8461 c0 -61 3 -72 22 -85 12 -9 32 -16 43 -16 11 0 31 7 43 16
19 13 22 24 22 85 0 39 -4 69 -10 69 -5 0 -10 -25 -10 -56 0 -67 -13 -94 -45
-94 -32 0 -45 27 -45 94 0 31 -4 56 -10 56 -6 0 -10 -30 -10 -69z"/>
<path d="M2540 8445 c0 -50 4 -85 10 -85 6 0 10 26 10 58 0 66 21 96 62 90 21
-3 23 -8 26 -75 2 -56 6 -73 17 -73 22 0 21 133 -1 154 -18 19 -47 20 -77 5
-16 -9 -22 -9 -25 0 -2 6 -8 11 -13 11 -5 0 -9 -38 -9 -85z"/>
<path d="M2755 8506 c-36 -36 -35 -97 2 -126 28 -22 83 -25 90 -4 2 6 -7 9
-24 7 -42 -6 -67 18 -67 62 0 44 25 68 67 62 17 -2 26 1 24 7 -2 6 -18 12 -35
14 -23 2 -38 -4 -57 -22z"/>
<path d="M3030 8445 c0 -69 3 -85 15 -85 12 0 15 16 15 85 0 69 -3 85 -15 85
-12 0 -15 -16 -15 -85z"/>
<path d="M3135 8505 c-52 -51 -16 -145 55 -145 44 0 80 39 80 85 0 46 -36 85
-80 85 -19 0 -40 -9 -55 -25z m87 -7 c16 -13 21 -32 19 -76 -1 -31 -42 -49
-76 -34 -21 10 -25 18 -25 56 0 32 5 48 18 55 23 14 45 13 64 -1z"/>
<path d="M3320 8445 c0 -50 4 -85 10 -85 6 0 10 26 10 58 0 66 21 96 62 90 21
-3 23 -8 26 -75 2 -56 6 -73 17 -73 22 0 21 133 -1 154 -18 19 -47 20 -77 5
-16 -9 -22 -9 -25 0 -2 6 -8 11 -13 11 -5 0 -9 -38 -9 -85z"/>
<path d="M3520 8380 c0 -13 7 -20 20 -20 13 0 20 7 20 20 0 13 -7 20 -20 20
-13 0 -20 -7 -20 -20z"/>
<path d="M637 8152 c-10 -10 -17 -31 -17 -45 0 -17 -5 -27 -15 -27 -8 0 -15
-4 -15 -10 0 -5 7 -10 15 -10 12 0 15 -15 15 -75 0 -43 4 -75 10 -75 6 0 10
32 10 75 0 73 1 75 25 75 14 0 25 5 25 10 0 6 -11 10 -25 10 -16 0 -25 6 -25
16 0 29 21 54 45 54 14 0 25 5 25 10 0 17 -56 11 -73 -8z"/>
<path d="M1230 8040 c0 -109 2 -130 15 -130 13 0 15 21 15 130 0 109 -2 130
-15 130 -13 0 -15 -21 -15 -130z"/>
<path d="M4730 8040 c0 -109 2 -130 15 -130 13 0 15 21 15 130 0 109 -2 130
-15 130 -13 0 -15 -21 -15 -130z"/>
<path d="M5530 8040 c0 -107 3 -130 15 -130 11 0 15 16 17 67 3 64 4 68 31 78
40 14 57 -12 57 -87 0 -32 4 -58 10 -58 17 0 12 136 -6 154 -18 18 -47 20 -75
6 -18 -10 -19 -7 -19 45 0 42 -3 55 -15 55 -13 0 -15 -21 -15 -130z"/>
<path d="M1155 8140 c-24 -26 -44 -88 -44 -135 0 -47 20 -109 44 -135 27 -30
37 -12 12 21 -19 26 -22 43 -22 114 0 71 3 88 22 114 25 33 15 51 -12 21z"/>
<path d="M6360 8155 c0 -6 9 -28 20 -50 14 -26 20 -59 20 -100 0 -41 -6 -74
-20 -100 -27 -53 -25 -66 5 -32 59 66 59 198 0 264 -13 16 -25 23 -25 18z"/>
<path d="M1700 8135 c0 -8 7 -15 15 -15 8 0 15 7 15 15 0 8 -7 15 -15 15 -8 0
-15 -7 -15 -15z"/>
<path d="M2550 8135 c0 -8 7 -15 15 -15 8 0 15 7 15 15 0 8 -7 15 -15 15 -8 0
-15 -7 -15 -15z"/>
<path d="M3820 8039 c-25 -61 -46 -115 -48 -120 -2 -5 3 -9 11 -9 8 0 22 18
31 40 15 39 17 40 64 40 48 0 49 -1 65 -40 8 -22 22 -40 31 -40 11 0 4 27 -34
118 -26 64 -54 118 -62 120 -8 1 -29 -38 -58 -109z m84 9 l15 -38 -41 0 c-34
0 -39 3 -33 18 4 9 12 30 17 45 12 32 20 28 42 -25z"/>
<path d="M5900 8135 c0 -8 7 -15 15 -15 8 0 15 7 15 15 0 8 -7 15 -15 15 -8 0
-15 -7 -15 -15z"/>
<path d="M6495 8134 c-11 -11 -14 -24 -10 -38 17 -53 17 -76 1 -76 -21 0 -20
-10 1 -25 15 -11 16 -17 3 -54 -12 -37 -11 -43 5 -61 18 -20 55 -28 55 -11 0
5 -10 11 -21 14 -19 5 -21 10 -14 39 4 18 7 41 6 51 -1 19 -1 48 0 75 0 9 -3
30 -7 45 -5 23 -3 29 15 34 11 3 21 9 21 14 0 15 -38 10 -55 -7z"/>
<path d="M1510 8105 c0 -18 -5 -25 -20 -25 -11 0 -20 -4 -20 -10 0 -5 9 -10
20 -10 18 0 20 -7 20 -63 0 -36 5 -68 12 -75 14 -14 68 -16 68 -2 0 6 -11 10
-24 10 -29 0 -36 16 -36 81 0 46 2 49 25 49 14 0 25 5 25 10 0 6 -11 10 -25
10 -20 0 -25 5 -25 25 0 14 -4 25 -10 25 -5 0 -10 -11 -10 -25z"/>
<path d="M2980 8105 c0 -18 -5 -25 -20 -25 -11 0 -20 -4 -20 -10 0 -5 9 -10
20 -10 18 0 20 -7 20 -63 0 -36 5 -68 12 -75 14 -14 68 -16 68 -2 0 6 -11 10
-24 10 -29 0 -36 16 -36 81 0 46 2 49 25 49 14 0 25 5 25 10 0 6 -11 10 -25
10 -20 0 -25 5 -25 25 0 14 -4 25 -10 25 -5 0 -10 -11 -10 -25z"/>
<path d="M5410 8105 c0 -18 -5 -25 -20 -25 -11 0 -20 -4 -20 -10 0 -5 9 -10
20 -10 18 0 20 -7 20 -63 0 -36 5 -68 12 -75 14 -14 68 -16 68 -2 0 6 -11 10
-24 10 -29 0 -36 16 -36 81 0 46 2 49 25 49 14 0 25 5 25 10 0 6 -11 10 -25
10 -20 0 -25 5 -25 25 0 14 -4 25 -10 25 -5 0 -10 -11 -10 -25z"/>
<path d="M2773 8052 c-40 -20 -73 -41 -73 -47 0 -6 34 -27 75 -48 50 -24 75
-32 75 -24 0 7 -27 26 -61 42 l-60 29 58 29 c68 34 66 33 62 45 -2 5 -37 -7
-76 -26z"/>
<path d="M745 8055 c-34 -33 -34 -87 0 -120 51 -52 135 -15 135 60 0 46 -36
85 -80 85 -19 0 -40 -9 -55 -25z m87 -7 c16 -13 21 -32 19 -76 -1 -31 -42 -49
-76 -34 -21 10 -25 18 -25 56 0 32 5 48 18 55 23 14 45 13 64 -1z"/>
<path d="M930 7995 c0 -50 4 -85 10 -85 6 0 10 26 10 58 0 62 18 92 53 92 9 0
17 5 17 10 0 13 -16 13 -43 -1 -16 -9 -22 -9 -25 0 -2 6 -8 11 -13 11 -5 0 -9
-38 -9 -85z"/>
<path d="M1335 8055 c-36 -35 -35 -96 2 -125 28 -22 93 -25 100 -4 2 6 -10 8
-31 6 -25 -3 -40 2 -55 17 -33 33 -25 41 39 41 65 0 72 8 49 53 -24 45 -67 50
-104 12z m79 -17 c14 -24 5 -30 -43 -26 -41 3 -41 3 -25 26 18 26 51 26 68 0z"/>
<path d="M1698 7968 c-3 -109 -4 -113 -25 -116 -13 -2 -23 -8 -23 -13 0 -12
37 -12 61 1 17 10 19 22 19 125 0 94 -3 115 -15 115 -12 0 -15 -22 -17 -112z"/>
<path d="M2136 8059 c-21 -16 -26 -29 -26 -64 0 -35 5 -48 26 -64 35 -28 69
-26 99 4 34 33 34 87 0 120 -30 30 -64 32 -99 4z m84 -14 c6 -8 12 -30 12 -50
0 -42 -16 -65 -47 -65 -30 0 -49 25 -49 65 0 18 6 40 13 49 17 20 55 21 71 1z"/>
<path d="M2548 7968 c-3 -109 -4 -113 -25 -116 -13 -2 -23 -8 -23 -13 0 -12
37 -12 61 1 17 10 19 22 19 125 0 94 -3 115 -15 115 -12 0 -15 -22 -17 -112z"/>
<path d="M3115 8055 c-36 -35 -35 -96 2 -125 28 -22 93 -25 100 -4 2 6 -10 8
-31 6 -25 -3 -40 2 -55 17 -33 33 -25 41 39 41 65 0 72 8 49 53 -24 45 -67 50
-104 12z m79 -17 c14 -24 5 -30 -43 -26 -41 3 -41 3 -25 26 18 26 51 26 68 0z"/>
<path d="M3280 7995 c0 -50 4 -85 10 -85 6 0 10 26 10 58 0 66 21 96 62 90 21
-3 23 -8 26 -75 2 -55 6 -73 17 -73 10 0 15 17 17 67 3 64 4 68 31 78 40 14
57 -12 57 -87 0 -32 4 -58 10 -58 17 0 12 136 -6 154 -19 20 -53 20 -81 1 -18
-13 -22 -13 -33 0 -15 18 -61 20 -79 3 -11 -10 -14 -10 -18 0 -13 35 -23 3
-23 -73z"/>
<path d="M3590 7955 c0 -77 4 -125 10 -125 6 0 10 20 10 45 l0 45 39 -6 c34
-5 43 -3 65 19 66 66 -5 179 -85 137 -13 -7 -19 -7 -19 0 0 5 -4 10 -10 10 -6
0 -10 -48 -10 -125z m108 93 c17 -17 15 -84 -4 -102 -18 -19 -38 -20 -65 -6
-26 14 -27 94 -1 109 23 14 55 14 70 -1z"/>
<path d="M4030 7995 c0 -50 4 -85 10 -85 6 0 10 26 10 58 0 62 18 92 53 92 9
0 17 5 17 10 0 13 -16 13 -43 -1 -16 -9 -22 -9 -25 0 -2 6 -8 11 -13 11 -5 0
-9 -38 -9 -85z"/>
<path d="M4150 7995 c0 -50 4 -85 10 -85 6 0 10 26 10 58 0 62 18 92 53 92 9
0 17 5 17 10 0 13 -16 13 -43 -1 -16 -9 -22 -9 -25 0 -2 6 -8 11 -13 11 -5 0
-9 -38 -9 -85z"/>
<path d="M4283 8073 c-26 -10 -12 -18 26 -15 32 3 41 0 51 -17 15 -29 7 -39
-28 -33 -44 6 -72 -13 -72 -48 0 -37 24 -50 84 -48 l46 2 0 68 c0 58 -3 69
-22 82 -22 16 -60 20 -85 9z m82 -108 c0 -29 -50 -44 -72 -22 -14 13 -14 19
-3 32 19 23 75 16 75 -10z"/>
<path d="M4433 8068 c3 -7 17 -44 33 -82 28 -71 28 -69 -1 -138 -5 -12 -3 -18
7 -18 11 0 64 109 116 242 2 4 -2 8 -10 8 -7 0 -24 -27 -37 -60 -14 -34 -27
-63 -31 -65 -3 -2 -17 25 -30 61 -14 36 -30 64 -38 64 -8 0 -12 -6 -9 -12z"/>
<path d="M4835 8055 c-36 -35 -35 -96 2 -125 28 -22 93 -25 100 -4 2 6 -10 8
-31 6 -25 -3 -40 2 -55 17 -33 33 -25 41 39 41 65 0 72 8 49 53 -24 45 -67 50
-104 12z m79 -17 c14 -24 5 -30 -43 -26 -41 3 -41 3 -25 26 18 26 51 26 68 0z"/>
<path d="M5000 7995 c0 -50 4 -85 10 -85 6 0 10 26 10 58 0 66 21 96 62 90 21
-3 23 -8 26 -75 2 -56 6 -73 17 -73 22 0 21 133 -1 154 -18 19 -47 20 -77 5
-16 -9 -22 -9 -25 0 -2 6 -8 11 -13 11 -5 0 -9 -38 -9 -85z"/>
<path d="M5215 8055 c-55 -55 -13 -154 61 -142 31 5 34 3 34 -18 0 -31 -31
-48 -76 -43 -21 2 -33 0 -31 -6 7 -21 81 -18 110 4 26 21 27 24 27 126 0 63
-4 104 -10 104 -5 0 -10 -5 -10 -10 0 -7 -6 -7 -19 0 -32 16 -60 12 -86 -15z
m79 -1 c12 -5 16 -20 16 -60 0 -50 -2 -54 -27 -60 -39 -10 -58 7 -61 55 -5 61
22 84 72 65z"/>
<path d="M5898 7968 c-3 -109 -4 -113 -25 -116 -13 -2 -23 -8 -23 -13 0 -12
37 -12 61 1 17 10 19 22 19 125 0 94 -3 115 -15 115 -12 0 -15 -22 -17 -112z"/>
<path d="M6040 8050 c0 -27 -3 -30 -30 -30 -16 0 -30 -4 -30 -10 0 -5 14 -10
30 -10 28 0 30 -3 30 -35 0 -24 5 -35 15 -35 10 0 15 11 15 35 0 32 2 35 30
35 17 0 30 5 30 10 0 6 -13 10 -30 10 -27 0 -30 3 -30 30 0 20 -5 30 -15 30
-10 0 -15 -10 -15 -30z"/>
<path d="M6230 8050 c0 -27 -3 -30 -30 -30 -16 0 -30 -4 -30 -10 0 -5 14 -10
30 -10 28 0 30 -3 30 -35 0 -24 5 -35 15 -35 10 0 15 11 15 35 0 32 2 35 30
35 17 0 30 5 30 10 0 6 -13 10 -30 10 -27 0 -30 3 -30 30 0 20 -5 30 -15 30
-10 0 -15 -10 -15 -30z"/>
<path d="M1850 8040 c0 -6 32 -10 75 -10 43 0 75 4 75 10 0 6 -32 10 -75 10
-43 0 -75 -4 -75 -10z"/>
<path d="M2310 8035 c0 -8 9 -15 20 -15 11 0 20 7 20 15 0 8 -9 15 -20 15 -11
0 -20 -7 -20 -15z"/>
<path d="M5730 8035 c0 -8 9 -15 20 -15 11 0 20 7 20 15 0 8 -9 15 -20 15 -11
0 -20 -7 -20 -15z"/>
<path d="M1850 7980 c0 -6 32 -10 75 -10 43 0 75 4 75 10 0 6 -32 10 -75 10
-43 0 -75 -4 -75 -10z"/>
<path d="M2302 7905 c-15 -58 -15 -65 3 -65 8 0 15 3 15 8 0 4 7 28 15 55 13
44 13 47 -3 47 -13 0 -21 -13 -30 -45z"/>
<path d="M4630 7930 c0 -13 7 -20 20 -20 13 0 20 7 20 20 0 13 -7 20 -20 20
-13 0 -20 -7 -20 -20z"/>
<path d="M5722 7905 c-15 -58 -15 -65 3 -65 8 0 15 3 15 8 0 4 7 28 15 55 13
44 13 47 -3 47 -13 0 -21 -13 -30 -45z"/>
<path d="M867 7702 c-10 -10 -17 -31 -17 -45 0 -17 -5 -27 -15 -27 -8 0 -15
-4 -15 -10 0 -5 7 -10 15 -10 12 0 15 -15 15 -75 0 -43 4 -75 10 -75 6 0 10
32 10 75 0 73 1 75 25 75 14 0 25 5 25 10 0 6 -11 10 -25 10 -16 0 -25 6 -25
16 0 29 21 54 45 54 14 0 25 5 25 10 0 17 -56 11 -73 -8z"/>
<path d="M4460 7550 c0 -107 4 -170 10 -170 6 0 10 63 10 170 0 107 -4 170
-10 170 -6 0 -10 -63 -10 -170z"/>
<path d="M4540 7550 c0 -107 4 -170 10 -170 6 0 10 63 10 170 0 107 -4 170
-10 170 -6 0 -10 -63 -10 -170z"/>
<path d="M1065 7690 c-24 -26 -44 -88 -44 -135 0 -47 20 -109 44 -135 27 -30
37 -12 12 21 -19 26 -22 43 -22 114 0 71 3 88 22 114 25 33 15 51 -12 21z"/>
<path d="M1175 7690 c-24 -26 -44 -88 -44 -135 0 -47 20 -109 44 -135 27 -30
37 -12 12 21 -19 26 -22 43 -22 114 0 71 3 88 22 114 25 33 15 51 -12 21z"/>
<path d="M4270 7705 c0 -6 9 -28 20 -50 14 -26 20 -59 20 -100 0 -41 -6 -74
-20 -100 -27 -53 -25 -66 5 -32 59 66 59 198 0 264 -13 16 -25 23 -25 18z"/>
<path d="M750 7685 c0 -8 7 -15 15 -15 8 0 15 7 15 15 0 8 -7 15 -15 15 -8 0
-15 -7 -15 -15z"/>
<path d="M1240 7655 c0 -33 4 -45 15 -45 11 0 15 12 15 45 0 33 -4 45 -15 45
-11 0 -15 -12 -15 -45z"/>
<path d="M1500 7655 c0 -33 4 -45 15 -45 11 0 15 12 15 45 0 33 -4 45 -15 45
-11 0 -15 -12 -15 -45z"/>
<path d="M3140 7589 c-25 -61 -46 -115 -48 -120 -2 -5 3 -9 11 -9 8 0 22 18
31 40 15 39 17 40 64 40 48 0 49 -1 65 -40 8 -22 22 -40 31 -40 11 0 4 27 -34
118 -26 64 -54 118 -62 120 -8 1 -29 -38 -58 -109z m84 9 l15 -38 -41 0 c-34
0 -39 3 -33 18 4 9 12 30 17 45 12 32 20 28 42 -25z"/>
<path d="M3950 7555 l0 -145 40 0 c22 0 40 5 40 10 0 6 -11 10 -25 10 l-25 0
0 125 0 125 25 0 c14 0 25 5 25 10 0 6 -18 10 -40 10 l-40 0 0 -145z"/>
<path d="M4070 7685 c0 -8 7 -15 15 -15 8 0 15 7 15 15 0 8 -7 15 -15 15 -8 0
-15 -7 -15 -15z"/>
<path d="M4140 7690 c0 -5 11 -10 25 -10 l25 0 0 -125 0 -125 -25 0 c-14 0
-25 -4 -25 -10 0 -5 18 -10 40 -10 l40 0 0 145 0 145 -40 0 c-22 0 -40 -4 -40
-10z"/>
<path d="M2300 7655 c0 -18 -5 -25 -20 -25 -11 0 -20 -4 -20 -10 0 -5 9 -10
20 -10 18 0 20 -7 20 -63 0 -36 5 -68 12 -75 14 -14 68 -16 68 -2 0 6 -11 10
-24 10 -29 0 -36 16 -36 81 0 46 2 49 25 49 14 0 25 5 25 10 0 6 -11 10 -25
10 -20 0 -25 5 -25 25 0 14 -4 25 -10 25 -5 0 -10 -11 -10 -25z"/>
<path d="M750 7545 c0 -69 3 -85 15 -85 12 0 15 16 15 85 0 69 -3 85 -15 85
-12 0 -15 -16 -15 -85z"/>
<path d="M1370 7600 c0 -27 -3 -30 -30 -30 -16 0 -30 -4 -30 -10 0 -5 14 -10
30 -10 28 0 30 -3 30 -35 0 -24 5 -35 15 -35 10 0 15 11 15 35 0 32 2 35 30
35 17 0 30 5 30 10 0 6 -13 10 -30 10 -27 0 -30 3 -30 30 0 20 -5 30 -15 30
-10 0 -15 -10 -15 -30z"/>
<path d="M2435 7605 c-36 -35 -35 -96 2 -125 28 -22 93 -25 100 -4 2 6 -10 8
-31 6 -25 -3 -40 2 -55 17 -33 33 -25 41 39 41 65 0 72 8 49 53 -24 45 -67 50
-104 12z m79 -17 c14 -24 5 -30 -43 -26 -41 3 -41 3 -25 26 18 26 51 26 68 0z"/>
<path d="M2600 7545 c0 -50 4 -85 10 -85 6 0 10 26 10 58 0 66 21 96 62 90 21
-3 23 -8 26 -75 2 -55 6 -73 17 -73 10 0 15 17 17 67 3 64 4 68 31 78 40 14
57 -12 57 -87 0 -32 4 -58 10 -58 17 0 12 136 -6 154 -19 20 -53 20 -81 1 -18
-13 -22 -13 -33 0 -15 18 -61 20 -79 3 -11 -10 -14 -10 -18 0 -13 35 -23 3
-23 -73z"/>
<path d="M2910 7505 c0 -77 4 -125 10 -125 6 0 10 20 10 45 l0 45 39 -6 c34
-5 43 -3 65 19 66 66 -5 179 -85 137 -13 -7 -19 -7 -19 0 0 5 -4 10 -10 10 -6
0 -10 -48 -10 -125z m108 93 c17 -17 15 -84 -4 -102 -18 -19 -38 -20 -65 -6
-26 14 -27 94 -1 109 23 14 55 14 70 -1z"/>
<path d="M3350 7545 c0 -50 4 -85 10 -85 6 0 10 26 10 58 0 62 18 92 53 92 9
0 17 5 17 10 0 13 -16 13 -43 -1 -16 -9 -22 -9 -25 0 -2 6 -8 11 -13 11 -5 0
-9 -38 -9 -85z"/>
<path d="M3470 7545 c0 -50 4 -85 10 -85 6 0 10 26 10 58 0 62 18 92 53 92 9
0 17 5 17 10 0 13 -16 13 -43 -1 -16 -9 -22 -9 -25 0 -2 6 -8 11 -13 11 -5 0
-9 -38 -9 -85z"/>
<path d="M3603 7623 c-26 -10 -12 -18 26 -15 32 3 41 0 51 -17 15 -29 7 -39
-28 -33 -44 6 -72 -13 -72 -48 0 -37 24 -50 84 -48 l46 2 0 68 c0 58 -3 69
-22 82 -22 16 -60 20 -85 9z m82 -108 c0 -29 -50 -44 -72 -22 -14 13 -14 19
-3 32 19 23 75 16 75 -10z"/>
<path d="M3753 7618 c3 -7 17 -44 33 -82 28 -71 28 -69 -1 -138 -5 -12 -3 -18
7 -18 11 0 64 109 116 242 2 4 -2 8 -10 8 -7 0 -24 -27 -37 -60 -14 -34 -27
-63 -31 -65 -3 -2 -17 25 -30 61 -14 36 -30 64 -38 64 -8 0 -12 -6 -9 -12z"/>
<path d="M4068 7518 c-3 -109 -4 -113 -25 -116 -13 -2 -23 -8 -23 -13 0 -12
37 -12 61 1 17 10 19 22 19 125 0 94 -3 115 -15 115 -12 0 -15 -22 -17 -112z"/>
<path d="M1640 7590 c0 -6 32 -10 75 -10 43 0 75 4 75 10 0 6 -32 10 -75 10
-43 0 -75 -4 -75 -10z"/>
<path d="M1830 7590 c0 -6 32 -10 75 -10 43 0 75 4 75 10 0 6 -32 10 -75 10
-43 0 -75 -4 -75 -10z"/>
<path d="M2020 7590 c0 -6 32 -10 75 -10 43 0 75 4 75 10 0 6 -32 10 -75 10
-43 0 -75 -4 -75 -10z"/>
<path d="M1640 7530 c0 -6 32 -10 75 -10 43 0 75 4 75 10 0 6 -32 10 -75 10
-43 0 -75 -4 -75 -10z"/>
<path d="M1830 7530 c0 -6 32 -10 75 -10 43 0 75 4 75 10 0 6 -32 10 -75 10
-43 0 -75 -4 -75 -10z"/>
<path d="M2020 7530 c0 -6 32 -10 75 -10 43 0 75 4 75 10 0 6 -32 10 -75 10
-43 0 -75 -4 -75 -10z"/>
<path d="M4420 7100 c0 -107 4 -170 10 -170 6 0 10 63 10 170 0 107 -4 170
-10 170 -6 0 -10 -63 -10 -170z"/>
<path d="M4500 7100 c0 -107 4 -170 10 -170 6 0 10 63 10 170 0 107 -4 170
-10 170 -6 0 -10 -63 -10 -170z"/>
<path d="M1065 7240 c-24 -26 -44 -88 -44 -135 0 -47 20 -109 44 -135 27 -30
37 -12 12 21 -19 26 -22 43 -22 114 0 71 3 88 22 114 25 33 15 51 -12 21z"/>
<path d="M4230 7255 c0 -6 9 -28 20 -50 14 -26 20 -59 20 -100 0 -41 -6 -74
-20 -100 -27 -53 -25 -66 5 -32 59 66 59 198 0 264 -13 16 -25 23 -25 18z"/>
<path d="M1130 7205 c0 -33 4 -45 15 -45 11 0 15 12 15 45 0 33 -4 45 -15 45
-11 0 -15 -12 -15 -45z"/>
<path d="M1320 7205 c0 -33 4 -45 15 -45 11 0 15 12 15 45 0 33 -4 45 -15 45
-11 0 -15 -12 -15 -45z"/>
<path d="M3100 7139 c-25 -61 -46 -115 -48 -120 -2 -5 3 -9 11 -9 8 0 22 18
31 40 15 39 17 40 64 40 48 0 49 -1 65 -40 8 -22 22 -40 31 -40 11 0 4 27 -34
118 -26 64 -54 118 -62 120 -8 1 -29 -38 -58 -109z m84 9 l15 -38 -41 0 c-34
0 -39 3 -33 18 4 9 12 30 17 45 12 32 20 28 42 -25z"/>
<path d="M3910 7105 l0 -145 40 0 c22 0 40 5 40 10 0 6 -11 10 -25 10 l-25 0
0 125 0 125 25 0 c14 0 25 5 25 10 0 6 -18 10 -40 10 l-40 0 0 -145z"/>
<path d="M4030 7235 c0 -8 7 -15 15 -15 8 0 15 7 15 15 0 8 -7 15 -15 15 -8 0
-15 -7 -15 -15z"/>
<path d="M4100 7240 c0 -5 11 -10 25 -10 l25 0 0 -125 0 -125 -25 0 c-14 0
-25 -4 -25 -10 0 -5 18 -10 40 -10 l40 0 0 145 0 145 -40 0 c-22 0 -40 -4 -40
-10z"/>
<path d="M2260 7205 c0 -18 -5 -25 -20 -25 -11 0 -20 -4 -20 -10 0 -5 9 -10
20 -10 18 0 20 -7 20 -63 0 -36 5 -68 12 -75 14 -14 68 -16 68 -2 0 6 -11 10
-24 10 -29 0 -36 16 -36 81 0 46 2 49 25 49 14 0 25 5 25 10 0 6 -11 10 -25
10 -20 0 -25 5 -25 25 0 14 -4 25 -10 25 -5 0 -10 -11 -10 -25z"/>
<path d="M2395 7155 c-36 -35 -35 -96 2 -125 28 -22 93 -25 100 -4 2 6 -10 8
-31 6 -25 -3 -40 2 -55 17 -33 33 -25 41 39 41 65 0 72 8 49 53 -24 45 -67 50
-104 12z m79 -17 c14 -24 5 -30 -43 -26 -41 3 -41 3 -25 26 18 26 51 26 68 0z"/>
<path d="M2560 7095 c0 -50 4 -85 10 -85 6 0 10 26 10 58 0 66 21 96 62 90 21
-3 23 -8 26 -75 2 -55 6 -73 17 -73 10 0 15 17 17 67 3 64 4 68 31 78 40 14
57 -12 57 -87 0 -32 4 -58 10 -58 17 0 12 136 -6 154 -19 20 -53 20 -81 1 -18
-13 -22 -13 -33 0 -15 18 -61 20 -79 3 -11 -10 -14 -10 -18 0 -13 35 -23 3
-23 -73z"/>
<path d="M2870 7055 c0 -77 4 -125 10 -125 6 0 10 20 10 45 l0 45 39 -6 c34
-5 43 -3 65 19 66 66 -5 179 -85 137 -13 -7 -19 -7 -19 0 0 5 -4 10 -10 10 -6
0 -10 -48 -10 -125z m108 93 c17 -17 15 -84 -4 -102 -18 -19 -38 -20 -65 -6
-26 14 -27 94 -1 109 23 14 55 14 70 -1z"/>
<path d="M3310 7095 c0 -50 4 -85 10 -85 6 0 10 26 10 58 0 62 18 92 53 92 9
0 17 5 17 10 0 13 -16 13 -43 -1 -16 -9 -22 -9 -25 0 -2 6 -8 11 -13 11 -5 0
-9 -38 -9 -85z"/>
<path d="M3430 7095 c0 -50 4 -85 10 -85 6 0 10 26 10 58 0 62 18 92 53 92 9
0 17 5 17 10 0 13 -16 13 -43 -1 -16 -9 -22 -9 -25 0 -2 6 -8 11 -13 11 -5 0
-9 -38 -9 -85z"/>
<path d="M3563 7173 c-26 -10 -12 -18 26 -15 32 3 41 0 51 -17 15 -29 7 -39
-28 -33 -44 6 -72 -13 -72 -48 0 -37 24 -50 84 -48 l46 2 0 68 c0 58 -3 69
-22 82 -22 16 -60 20 -85 9z m82 -108 c0 -29 -50 -44 -72 -22 -14 13 -14 19
-3 32 19 23 75 16 75 -10z"/>
<path d="M3713 7168 c3 -7 17 -44 33 -82 28 -71 28 -69 -1 -138 -5 -12 -3 -18
7 -18 11 0 64 109 116 242 2 4 -2 8 -10 8 -7 0 -24 -27 -37 -60 -14 -34 -27
-63 -31 -65 -3 -2 -17 25 -30 61 -14 36 -30 64 -38 64 -8 0 -12 -6 -9 -12z"/>
<path d="M4028 7068 c-3 -109 -4 -113 -25 -116 -13 -2 -23 -8 -23 -13 0 -12
37 -12 61 1 17 10 19 22 19 125 0 94 -3 115 -15 115 -12 0 -15 -22 -17 -112z"/>
<path d="M1600 7140 c0 -6 32 -10 75 -10 43 0 75 4 75 10 0 6 -32 10 -75 10
-43 0 -75 -4 -75 -10z"/>
<path d="M1790 7140 c0 -6 32 -10 75 -10 43 0 75 4 75 10 0 6 -32 10 -75 10
-43 0 -75 -4 -75 -10z"/>
<path d="M1980 7140 c0 -6 32 -10 75 -10 43 0 75 4 75 10 0 6 -32 10 -75 10
-43 0 -75 -4 -75 -10z"/>
<path d="M1200 7100 c0 -5 18 -10 40 -10 22 0 40 5 40 10 0 6 -18 10 -40 10
-22 0 -40 -4 -40 -10z"/>
<path d="M1600 7080 c0 -6 32 -10 75 -10 43 0 75 4 75 10 0 6 -32 10 -75 10
-43 0 -75 -4 -75 -10z"/>
<path d="M1790 7080 c0 -6 32 -10 75 -10 43 0 75 4 75 10 0 6 -32 10 -75 10
-43 0 -75 -4 -75 -10z"/>
<path d="M1980 7080 c0 -6 32 -10 75 -10 43 0 75 4 75 10 0 6 -32 10 -75 10
-43 0 -75 -4 -75 -10z"/>
<path d="M4430 6650 c0 -107 4 -170 10 -170 6 0 10 63 10 170 0 107 -4 170
-10 170 -6 0 -10 -63 -10 -170z"/>
<path d="M4510 6650 c0 -107 4 -170 10 -170 6 0 10 63 10 170 0 107 -4 170
-10 170 -6 0 -10 -63 -10 -170z"/>
<path d="M1065 6790 c-24 -26 -44 -88 -44 -135 0 -47 20 -109 44 -135 27 -30
37 -12 12 21 -19 26 -22 43 -22 114 0 71 3 88 22 114 25 33 15 51 -12 21z"/>
<path d="M4240 6805 c0 -6 9 -28 20 -50 14 -26 20 -59 20 -100 0 -41 -6 -74
-20 -100 -27 -53 -25 -66 5 -32 59 66 59 198 0 264 -13 16 -25 23 -25 18z"/>
<path d="M1130 6755 c0 -33 4 -45 15 -45 11 0 15 12 15 45 0 33 -4 45 -15 45
-11 0 -15 -12 -15 -45z"/>
<path d="M1270 6770 c0 -34 1 -34 -34 -20 -21 8 -26 6 -26 -5 0 -9 13 -18 31
-22 22 -4 38 -17 52 -40 14 -24 23 -31 30 -24 8 8 4 18 -12 35 l-23 24 31 7
c17 4 31 13 31 21 0 10 -6 11 -26 4 -35 -14 -34 -14 -34 20 0 17 -4 30 -10 30
-5 0 -10 -13 -10 -30z"/>
<path d="M1400 6755 c0 -33 4 -45 15 -45 11 0 15 12 15 45 0 33 -4 45 -15 45
-11 0 -15 -12 -15 -45z"/>
<path d="M3110 6689 c-25 -61 -46 -115 -48 -120 -2 -5 3 -9 11 -9 8 0 22 18
31 40 15 39 17 40 64 40 48 0 49 -1 65 -40 8 -22 22 -40 31 -40 11 0 4 27 -34
118 -26 64 -54 118 -62 120 -8 1 -29 -38 -58 -109z m84 9 l15 -38 -41 0 c-34
0 -39 3 -33 18 4 9 12 30 17 45 12 32 20 28 42 -25z"/>
<path d="M3920 6655 l0 -145 40 0 c22 0 40 5 40 10 0 6 -11 10 -25 10 l-25 0
0 125 0 125 25 0 c14 0 25 5 25 10 0 6 -18 10 -40 10 l-40 0 0 -145z"/>
<path d="M4040 6785 c0 -8 7 -15 15 -15 8 0 15 7 15 15 0 8 -7 15 -15 15 -8 0
-15 -7 -15 -15z"/>
<path d="M4110 6790 c0 -5 11 -10 25 -10 l25 0 0 -125 0 -125 -25 0 c-14 0
-25 -4 -25 -10 0 -5 18 -10 40 -10 l40 0 0 145 0 145 -40 0 c-22 0 -40 -4 -40
-10z"/>
<path d="M2270 6755 c0 -18 -5 -25 -20 -25 -11 0 -20 -4 -20 -10 0 -5 9 -10
20 -10 18 0 20 -7 20 -63 0 -36 5 -68 12 -75 14 -14 68 -16 68 -2 0 6 -11 10
-24 10 -29 0 -36 16 -36 81 0 46 2 49 25 49 14 0 25 5 25 10 0 6 -11 10 -25
10 -20 0 -25 5 -25 25 0 14 -4 25 -10 25 -5 0 -10 -11 -10 -25z"/>
<path d="M2405 6705 c-36 -35 -35 -96 2 -125 28 -22 93 -25 100 -4 2 6 -10 8
-31 6 -25 -3 -40 2 -55 17 -33 33 -25 41 39 41 65 0 72 8 49 53 -24 45 -67 50
-104 12z m79 -17 c14 -24 5 -30 -43 -26 -41 3 -41 3 -25 26 18 26 51 26 68 0z"/>
<path d="M2570 6645 c0 -50 4 -85 10 -85 6 0 10 26 10 58 0 66 21 96 62 90 21
-3 23 -8 26 -75 2 -55 6 -73 17 -73 10 0 15 17 17 67 3 64 4 68 31 78 40 14
57 -12 57 -87 0 -32 4 -58 10 -58 17 0 12 136 -6 154 -19 20 -53 20 -81 1 -18
-13 -22 -13 -33 0 -15 18 -61 20 -79 3 -11 -10 -14 -10 -18 0 -13 35 -23 3
-23 -73z"/>
<path d="M2880 6605 c0 -77 4 -125 10 -125 6 0 10 20 10 45 l0 45 39 -6 c34
-5 43 -3 65 19 66 66 -5 179 -85 137 -13 -7 -19 -7 -19 0 0 5 -4 10 -10 10 -6
0 -10 -48 -10 -125z m108 93 c17 -17 15 -84 -4 -102 -18 -19 -38 -20 -65 -6
-26 14 -27 94 -1 109 23 14 55 14 70 -1z"/>
<path d="M3320 6645 c0 -50 4 -85 10 -85 6 0 10 26 10 58 0 62 18 92 53 92 9
0 17 5 17 10 0 13 -16 13 -43 -1 -16 -9 -22 -9 -25 0 -2 6 -8 11 -13 11 -5 0
-9 -38 -9 -85z"/>
<path d="M3440 6645 c0 -50 4 -85 10 -85 6 0 10 26 10 58 0 62 18 92 53 92 9
0 17 5 17 10 0 13 -16 13 -43 -1 -16 -9 -22 -9 -25 0 -2 6 -8 11 -13 11 -5 0
-9 -38 -9 -85z"/>
<path d="M3573 6723 c-26 -10 -12 -18 26 -15 32 3 41 0 51 -17 15 -29 7 -39
-28 -33 -44 6 -72 -13 -72 -48 0 -37 24 -50 84 -48 l46 2 0 68 c0 58 -3 69
-22 82 -22 16 -60 20 -85 9z m82 -108 c0 -29 -50 -44 -72 -22 -14 13 -14 19
-3 32 19 23 75 16 75 -10z"/>
<path d="M3723 6718 c3 -7 17 -44 33 -82 28 -71 28 -69 -1 -138 -5 -12 -3 -18
7 -18 11 0 64 109 116 242 2 4 -2 8 -10 8 -7 0 -24 -27 -37 -60 -14 -34 -27
-63 -31 -65 -3 -2 -17 25 -30 61 -14 36 -30 64 -38 64 -8 0 -12 -6 -9 -12z"/>
<path d="M4038 6618 c-3 -109 -4 -113 -25 -116 -13 -2 -23 -8 -23 -13 0 -12
37 -12 61 1 17 10 19 22 19 125 0 94 -3 115 -15 115 -12 0 -15 -22 -17 -112z"/>
<path d="M1246 6691 c-10 -11 -15 -25 -11 -31 5 -8 12 -5 22 10 20 29 12 46
-11 21z"/>
<path d="M1610 6690 c0 -6 32 -10 75 -10 43 0 75 4 75 10 0 6 -32 10 -75 10
-43 0 -75 -4 -75 -10z"/>
<path d="M1800 6690 c0 -6 32 -10 75 -10 43 0 75 4 75 10 0 6 -32 10 -75 10
-43 0 -75 -4 -75 -10z"/>
<path d="M1990 6690 c0 -6 32 -10 75 -10 43 0 75 4 75 10 0 6 -32 10 -75 10
-43 0 -75 -4 -75 -10z"/>
<path d="M1610 6630 c0 -6 32 -10 75 -10 43 0 75 4 75 10 0 6 -32 10 -75 10
-43 0 -75 -4 -75 -10z"/>
<path d="M1800 6630 c0 -6 32 -10 75 -10 43 0 75 4 75 10 0 6 -32 10 -75 10
-43 0 -75 -4 -75 -10z"/>
<path d="M1990 6630 c0 -6 32 -10 75 -10 43 0 75 4 75 10 0 6 -32 10 -75 10
-43 0 -75 -4 -75 -10z"/>
<path d="M1065 6340 c-24 -26 -44 -88 -44 -135 0 -47 20 -109 44 -135 27 -30
37 -12 12 21 -19 26 -22 43 -22 114 0 71 3 88 22 114 25 33 15 51 -12 21z"/>
<path d="M4210 6355 c0 -6 9 -28 20 -50 14 -26 20 -59 20 -100 0 -41 -6 -74
-20 -100 -27 -53 -25 -66 5 -32 59 66 59 198 0 264 -13 16 -25 23 -25 18z"/>
<path d="M4390 6355 c0 -6 9 -28 20 -50 14 -26 20 -59 20 -100 0 -41 -6 -74
-20 -100 -27 -53 -25 -66 5 -32 59 66 59 198 0 264 -13 16 -25 23 -25 18z"/>
<path d="M1130 6305 c0 -33 4 -45 15 -45 11 0 15 12 15 45 0 33 -4 45 -15 45
-11 0 -15 -12 -15 -45z"/>
<path d="M1221 6218 c-34 -144 -36 -158 -22 -158 11 0 12 1 46 150 14 63 28
121 30 128 2 6 -2 12 -9 12 -9 0 -24 -43 -45 -132z"/>
<path d="M1300 6305 c0 -33 4 -45 15 -45 11 0 15 12 15 45 0 33 -4 45 -15 45
-11 0 -15 -12 -15 -45z"/>
<path d="M3080 6239 c-25 -61 -46 -115 -48 -120 -2 -5 3 -9 11 -9 8 0 22 18
31 40 15 39 17 40 64 40 48 0 49 -1 65 -40 8 -22 22 -40 31 -40 11 0 4 27 -34
118 -26 64 -54 118 -62 120 -8 1 -29 -38 -58 -109z m84 9 l15 -38 -41 0 c-34
0 -39 3 -33 18 4 9 12 30 17 45 12 32 20 28 42 -25z"/>
<path d="M3890 6205 l0 -145 40 0 c22 0 40 5 40 10 0 6 -11 10 -25 10 l-25 0
0 125 0 125 25 0 c14 0 25 5 25 10 0 6 -18 10 -40 10 l-40 0 0 -145z"/>
<path d="M4010 6335 c0 -8 7 -15 15 -15 8 0 15 7 15 15 0 8 -7 15 -15 15 -8 0
-15 -7 -15 -15z"/>
<path d="M4080 6340 c0 -5 11 -10 25 -10 l25 0 0 -125 0 -125 -25 0 c-14 0
-25 -4 -25 -10 0 -5 18 -10 40 -10 l40 0 0 145 0 145 -40 0 c-22 0 -40 -4 -40
-10z"/>
<path d="M4525 6334 c-11 -11 -14 -24 -10 -38 17 -53 17 -76 1 -76 -21 0 -20
-10 1 -25 15 -11 16 -17 3 -54 -12 -37 -11 -43 5 -61 18 -20 55 -28 55 -11 0
5 -10 11 -21 14 -19 5 -21 10 -14 39 4 18 7 41 6 51 -1 19 -1 48 0 75 0 9 -3
30 -7 45 -5 23 -3 29 15 34 11 3 21 9 21 14 0 15 -38 10 -55 -7z"/>
<path d="M2240 6305 c0 -18 -5 -25 -20 -25 -11 0 -20 -4 -20 -10 0 -5 9 -10
20 -10 18 0 20 -7 20 -63 0 -36 5 -68 12 -75 14 -14 68 -16 68 -2 0 6 -11 10
-24 10 -29 0 -36 16 -36 81 0 46 2 49 25 49 14 0 25 5 25 10 0 6 -11 10 -25
10 -20 0 -25 5 -25 25 0 14 -4 25 -10 25 -5 0 -10 -11 -10 -25z"/>
<path d="M2375 6255 c-36 -35 -35 -96 2 -125 28 -22 93 -25 100 -4 2 6 -10 8
-31 6 -25 -3 -40 2 -55 17 -33 33 -25 41 39 41 65 0 72 8 49 53 -24 45 -67 50
-104 12z m79 -17 c14 -24 5 -30 -43 -26 -41 3 -41 3 -25 26 18 26 51 26 68 0z"/>
<path d="M2540 6195 c0 -50 4 -85 10 -85 6 0 10 26 10 58 0 66 21 96 62 90 21
-3 23 -8 26 -75 2 -55 6 -73 17 -73 10 0 15 17 17 67 3 64 4 68 31 78 40 14
57 -12 57 -87 0 -32 4 -58 10 -58 17 0 12 136 -6 154 -19 20 -53 20 -81 1 -18
-13 -22 -13 -33 0 -15 18 -61 20 -79 3 -11 -10 -14 -10 -18 0 -13 35 -23 3
-23 -73z"/>
<path d="M2850 6155 c0 -77 4 -125 10 -125 6 0 10 20 10 45 l0 45 39 -6 c34
-5 43 -3 65 19 66 66 -5 179 -85 137 -13 -7 -19 -7 -19 0 0 5 -4 10 -10 10 -6
0 -10 -48 -10 -125z m108 93 c17 -17 15 -84 -4 -102 -18 -19 -38 -20 -65 -6
-26 14 -27 94 -1 109 23 14 55 14 70 -1z"/>
<path d="M3290 6195 c0 -50 4 -85 10 -85 6 0 10 26 10 58 0 62 18 92 53 92 9
0 17 5 17 10 0 13 -16 13 -43 -1 -16 -9 -22 -9 -25 0 -2 6 -8 11 -13 11 -5 0
-9 -38 -9 -85z"/>
<path d="M3410 6195 c0 -50 4 -85 10 -85 6 0 10 26 10 58 0 62 18 92 53 92 9
0 17 5 17 10 0 13 -16 13 -43 -1 -16 -9 -22 -9 -25 0 -2 6 -8 11 -13 11 -5 0
-9 -38 -9 -85z"/>
<path d="M3543 6273 c-26 -10 -12 -18 26 -15 32 3 41 0 51 -17 15 -29 7 -39
-28 -33 -44 6 -72 -13 -72 -48 0 -37 24 -50 84 -48 l46 2 0 68 c0 58 -3 69
-22 82 -22 16 -60 20 -85 9z m82 -108 c0 -29 -50 -44 -72 -22 -14 13 -14 19
-3 32 19 23 75 16 75 -10z"/>
<path d="M3693 6268 c3 -7 17 -44 33 -82 28 -71 28 -69 -1 -138 -5 -12 -3 -18
7 -18 11 0 64 109 116 242 2 4 -2 8 -10 8 -7 0 -24 -27 -37 -60 -14 -34 -27
-63 -31 -65 -3 -2 -17 25 -30 61 -14 36 -30 64 -38 64 -8 0 -12 -6 -9 -12z"/>
<path d="M4008 6168 c-3 -109 -4 -113 -25 -116 -13 -2 -23 -8 -23 -13 0 -12
37 -12 61 1 17 10 19 22 19 125 0 94 -3 115 -15 115 -12 0 -15 -22 -17 -112z"/>
<path d="M1580 6240 c0 -6 32 -10 75 -10 43 0 75 4 75 10 0 6 -32 10 -75 10
-43 0 -75 -4 -75 -10z"/>
<path d="M1770 6240 c0 -6 32 -10 75 -10 43 0 75 4 75 10 0 6 -32 10 -75 10
-43 0 -75 -4 -75 -10z"/>
<path d="M1960 6240 c0 -6 32 -10 75 -10 43 0 75 4 75 10 0 6 -32 10 -75 10
-43 0 -75 -4 -75 -10z"/>
<path d="M1580 6180 c0 -6 32 -10 75 -10 43 0 75 4 75 10 0 6 -32 10 -75 10
-43 0 -75 -4 -75 -10z"/>
<path d="M1770 6180 c0 -6 32 -10 75 -10 43 0 75 4 75 10 0 6 -32 10 -75 10
-43 0 -75 -4 -75 -10z"/>
<path d="M1960 6180 c0 -6 32 -10 75 -10 43 0 75 4 75 10 0 6 -32 10 -75 10
-43 0 -75 -4 -75 -10z"/>
<path d="M2067 5902 c-10 -10 -17 -31 -17 -45 0 -17 -5 -27 -15 -27 -8 0 -15
-4 -15 -10 0 -5 7 -10 15 -10 12 0 15 -15 15 -75 0 -43 4 -75 10 -75 6 0 10
32 10 75 0 73 1 75 25 75 14 0 25 5 25 10 0 6 -11 10 -25 10 -16 0 -25 6 -25
16 0 29 21 54 45 54 14 0 25 5 25 10 0 17 -56 11 -73 -8z"/>
<path d="M2340 5790 c0 -109 2 -130 15 -130 13 0 15 21 15 130 0 109 -2 130
-15 130 -13 0 -15 -21 -15 -130z"/>
<path d="M1340 5855 c0 -18 -5 -25 -20 -25 -11 0 -20 -4 -20 -10 0 -5 9 -10
20 -10 18 0 20 -7 20 -63 0 -36 5 -68 12 -75 14 -14 68 -16 68 -2 0 6 -11 10
-24 10 -29 0 -36 16 -36 81 0 46 2 49 25 49 14 0 25 5 25 10 0 6 -11 10 -25
10 -20 0 -25 5 -25 25 0 14 -4 25 -10 25 -5 0 -10 -11 -10 -25z"/>
<path d="M1030 5745 c0 -50 4 -85 10 -85 6 0 10 26 10 58 0 62 18 92 53 92 9
0 17 5 17 10 0 13 -16 13 -43 -1 -16 -9 -22 -9 -25 0 -2 6 -8 11 -13 11 -5 0
-9 -38 -9 -85z"/>
<path d="M1165 5805 c-36 -35 -35 -96 2 -125 28 -22 93 -25 100 -4 2 6 -10 8
-31 6 -25 -3 -40 2 -55 17 -33 33 -25 41 39 41 65 0 72 8 49 53 -24 45 -67 50
-104 12z m79 -17 c14 -24 5 -30 -43 -26 -41 3 -41 3 -25 26 18 26 51 26 68 0z"/>
<path d="M1460 5761 c0 -61 3 -72 22 -85 12 -9 32 -16 43 -16 11 0 31 7 43 16
19 13 22 24 22 85 0 39 -4 69 -10 69 -5 0 -10 -25 -10 -56 0 -67 -13 -94 -45
-94 -32 0 -45 27 -45 94 0 31 -4 56 -10 56 -6 0 -10 -30 -10 -69z"/>
<path d="M1650 5745 c0 -50 4 -85 10 -85 6 0 10 26 10 58 0 62 18 92 53 92 9
0 17 5 17 10 0 13 -16 13 -43 -1 -16 -9 -22 -9 -25 0 -2 6 -8 11 -13 11 -5 0
-9 -38 -9 -85z"/>
<path d="M1770 5745 c0 -50 4 -85 10 -85 6 0 10 26 10 58 0 66 21 96 62 90 21
-3 23 -8 26 -75 2 -56 6 -73 17 -73 22 0 21 133 -1 154 -18 19 -47 20 -77 5
-16 -9 -22 -9 -25 0 -2 6 -8 11 -13 11 -5 0 -9 -38 -9 -85z"/>
<path d="M2173 5823 c-26 -10 -12 -18 26 -15 32 3 41 0 51 -17 15 -29 7 -39
-28 -33 -44 6 -72 -13 -72 -48 0 -37 24 -50 84 -48 l46 2 0 68 c0 58 -3 69
-22 82 -22 16 -60 20 -85 9z m82 -108 c0 -29 -50 -44 -72 -22 -14 13 -14 19
-3 32 19 23 75 16 75 -10z"/>
<path d="M2436 5814 c-29 -28 -14 -74 24 -74 9 0 25 -6 35 -14 29 -21 2 -49
-42 -44 -20 3 -32 0 -30 -6 5 -16 62 -19 87 -6 16 9 20 19 18 42 -2 26 -9 33
-38 43 -24 8 -35 18 -35 31 0 15 7 19 38 19 39 0 48 9 21 19 -28 11 -62 6 -78
-10z"/>
<path d="M2595 5805 c-36 -35 -35 -96 2 -125 28 -22 93 -25 100 -4 2 6 -10 8
-31 6 -25 -3 -40 2 -55 17 -33 33 -25 41 39 41 65 0 72 8 49 53 -24 45 -67 50
-104 12z m79 -17 c14 -24 5 -30 -43 -26 -41 3 -41 3 -25 26 18 26 51 26 68 0z"/>
<path d="M2760 5785 c0 -8 9 -15 20 -15 11 0 20 7 20 15 0 8 -9 15 -20 15 -11
0 -20 -7 -20 -15z"/>
<path d="M2752 5655 c-15 -58 -15 -65 3 -65 8 0 15 3 15 8 0 4 7 28 15 55 13
44 13 47 -3 47 -13 0 -21 -13 -30 -45z"/>
<path d="M730 5441 c0 -5 10 -11 21 -14 18 -5 20 -11 15 -34 -4 -15 -7 -36 -7
-45 1 -27 1 -56 0 -75 -1 -10 2 -33 6 -51 7 -29 5 -34 -14 -39 -11 -3 -21 -9
-21 -14 0 -17 37 -9 55 11 16 18 17 24 5 61 -13 37 -12 43 3 54 21 15 22 25 1
25 -16 0 -16 23 1 76 4 14 1 27 -10 38 -17 17 -55 22 -55 7z"/>
<path d="M520 4991 c0 -5 10 -11 21 -14 18 -5 20 -11 15 -34 -4 -15 -7 -36 -7
-45 1 -27 1 -56 0 -75 -1 -10 2 -33 6 -51 7 -29 5 -34 -14 -39 -11 -3 -21 -9
-21 -14 0 -17 37 -9 55 11 16 18 17 24 5 61 -13 37 -12 43 3 54 21 15 22 25 1
25 -16 0 -16 23 1 76 4 14 1 27 -10 38 -17 17 -55 22 -55 7z"/>
<path d="M1310 4521 l0 -50 -34 6 c-74 12 -116 -87 -61 -142 20 -21 33 -25 75
-23 l50 2 0 128 c0 107 -2 128 -15 128 -11 0 -15 -12 -15 -49z m-16 -67 c23
-9 23 -109 0 -118 -47 -18 -76 4 -76 59 0 55 29 77 76 59z"/>
<path d="M3120 4442 l0 -128 50 -2 c42 -2 55 2 75 23 57 56 14 154 -62 142
l-33 -6 0 50 c0 37 -4 49 -15 49 -13 0 -15 -21 -15 -128z m118 -15 c25 -52
-10 -106 -61 -93 -25 6 -27 10 -27 60 0 58 7 66 50 63 16 -1 29 -12 38 -30z"/>
<path d="M4240 4440 c0 -107 3 -130 15 -130 11 0 15 16 17 67 3 64 4 68 31 78
40 14 57 -12 57 -87 0 -32 4 -58 10 -58 17 0 12 136 -6 154 -18 18 -47 20 -75
6 -18 -10 -19 -7 -19 45 0 42 -3 55 -15 55 -13 0 -15 -21 -15 -130z"/>
<path d="M4670 4440 c0 -107 3 -130 15 -130 11 0 15 16 17 67 3 64 4 68 31 78
40 14 57 -12 57 -87 0 -32 4 -58 10 -58 17 0 12 136 -6 154 -18 18 -47 20 -75
6 -18 -10 -19 -7 -19 45 0 42 -3 55 -15 55 -13 0 -15 -21 -15 -130z"/>
<path d="M6860 4521 l0 -50 -34 6 c-74 12 -116 -87 -61 -142 20 -21 33 -25 75
-23 l50 2 0 128 c0 107 -2 128 -15 128 -11 0 -15 -12 -15 -49z m-16 -67 c12
-5 16 -20 16 -59 0 -54 -8 -65 -50 -65 -26 0 -42 25 -42 65 0 55 29 77 76 59z"/>
<path d="M621 4418 c-34 -144 -36 -158 -22 -158 11 0 12 1 46 150 14 63 28
121 30 128 2 6 -2 12 -9 12 -9 0 -24 -43 -45 -132z"/>
<path d="M721 4418 c-34 -144 -36 -158 -22 -158 11 0 12 1 46 150 14 63 28
121 30 128 2 6 -2 12 -9 12 -9 0 -24 -43 -45 -132z"/>
<path d="M4020 4535 c0 -8 7 -15 15 -15 8 0 15 7 15 15 0 8 -7 15 -15 15 -8 0
-15 -7 -15 -15z"/>
<path d="M1590 4505 c0 -18 -5 -25 -20 -25 -11 0 -20 -4 -20 -10 0 -5 9 -10
20 -10 18 0 20 -7 20 -63 0 -36 5 -68 12 -75 14 -14 68 -16 68 -2 0 6 -11 10
-24 10 -29 0 -36 16 -36 81 0 46 2 49 25 49 14 0 25 5 25 10 0 6 -11 10 -25
10 -20 0 -25 5 -25 25 0 14 -4 25 -10 25 -5 0 -10 -11 -10 -25z"/>
<path d="M4120 4505 c0 -18 -5 -25 -20 -25 -11 0 -20 -4 -20 -10 0 -5 9 -10
20 -10 18 0 20 -7 20 -63 0 -36 5 -68 12 -75 14 -14 68 -16 68 -2 0 6 -11 10
-24 10 -29 0 -36 16 -36 81 0 46 2 49 25 49 14 0 25 5 25 10 0 6 -11 10 -25
10 -20 0 -25 5 -25 25 0 14 -4 25 -10 25 -5 0 -10 -11 -10 -25z"/>
<path d="M810 4411 c0 -61 3 -72 22 -85 12 -9 32 -16 43 -16 11 0 31 7 43 16
19 13 22 24 22 85 0 39 -4 69 -10 69 -5 0 -10 -25 -10 -56 0 -67 -13 -94 -45
-94 -32 0 -45 27 -45 94 0 31 -4 56 -10 56 -6 0 -10 -30 -10 -69z"/>
<path d="M1000 4355 c0 -77 4 -125 10 -125 6 0 10 20 10 45 l0 45 39 -6 c34
-5 43 -3 65 19 66 66 -5 179 -85 137 -13 -7 -19 -7 -19 0 0 5 -4 10 -10 10 -6
0 -10 -48 -10 -125z m108 93 c17 -17 15 -84 -4 -102 -18 -19 -38 -20 -65 -6
-26 14 -27 94 -1 109 23 14 55 14 70 -1z"/>
<path d="M1413 4473 c-26 -10 -12 -18 26 -15 32 3 41 0 51 -17 15 -29 7 -39
-28 -33 -44 6 -72 -13 -72 -48 0 -37 24 -50 84 -48 l46 2 0 68 c0 58 -3 69
-22 82 -22 16 -60 20 -85 9z m82 -108 c0 -29 -50 -44 -72 -22 -14 13 -14 19
-3 32 19 23 75 16 75 -10z"/>
<path d="M1725 4455 c-36 -35 -35 -96 2 -125 28 -22 93 -25 100 -4 2 6 -10 8
-31 6 -25 -3 -40 2 -55 17 -33 33 -25 41 39 41 65 0 72 8 49 53 -24 45 -67 50
-104 12z m79 -17 c14 -24 5 -30 -43 -26 -41 3 -41 3 -25 26 18 26 51 26 68 0z"/>
<path d="M1973 4473 c-26 -10 -12 -18 26 -15 32 3 41 0 51 -17 15 -29 7 -39
-28 -33 -44 6 -72 -13 -72 -48 0 -37 24 -50 84 -48 l46 2 0 68 c0 58 -3 69
-22 82 -22 16 -60 20 -85 9z m82 -108 c0 -29 -50 -44 -72 -22 -14 13 -14 19
-3 32 19 23 75 16 75 -10z"/>
<path d="M2140 4395 c0 -50 4 -85 10 -85 6 0 10 26 10 58 0 66 21 96 62 90 21
-3 23 -8 26 -75 2 -56 6 -73 17 -73 22 0 21 133 -1 154 -18 19 -47 20 -77 5
-16 -9 -22 -9 -25 0 -2 6 -8 11 -13 11 -5 0 -9 -38 -9 -85z"/>
<path d="M2346 4464 c-29 -28 -14 -74 24 -74 9 0 25 -6 35 -14 29 -21 2 -49
-42 -44 -20 3 -32 0 -30 -6 5 -16 62 -19 87 -6 16 9 20 19 18 42 -2 26 -9 33
-38 43 -24 8 -35 18 -35 31 0 15 7 19 38 19 39 0 48 9 21 19 -28 11 -62 6 -78
-10z"/>
<path d="M2473 4468 c2 -7 15 -46 28 -85 12 -40 28 -73 35 -73 11 0 44 90 44
121 0 25 15 -4 31 -59 22 -81 40 -78 68 10 13 40 26 79 28 86 3 6 -1 12 -8 12
-8 0 -23 -28 -35 -68 l-21 -67 -19 65 c-26 84 -45 89 -63 18 -21 -84 -26 -86
-47 -14 -11 40 -24 66 -32 66 -8 0 -12 -6 -9 -12z"/>
<path d="M2765 4455 c-36 -35 -35 -96 2 -125 28 -22 93 -25 100 -4 2 6 -10 8
-31 6 -25 -3 -40 2 -55 17 -33 33 -25 41 39 41 65 0 72 8 49 53 -24 45 -67 50
-104 12z m79 -17 c14 -24 5 -30 -43 -26 -41 3 -41 3 -25 26 18 26 51 26 68 0z"/>
<path d="M2930 4395 c0 -50 4 -85 10 -85 6 0 10 26 10 58 0 62 18 92 53 92 9
0 17 5 17 10 0 13 -16 13 -43 -1 -16 -9 -22 -9 -25 0 -2 6 -8 11 -13 11 -5 0
-9 -38 -9 -85z"/>
<path d="M3335 4455 c-52 -51 -16 -145 55 -145 44 0 80 39 80 85 0 46 -36 85
-80 85 -19 0 -40 -9 -55 -25z m87 -7 c16 -13 21 -32 19 -76 -1 -31 -42 -49
-76 -34 -21 10 -25 18 -25 56 0 32 5 48 18 55 23 14 45 13 64 -1z"/>
<path d="M3529 4438 l31 -42 -23 -30 c-36 -47 -40 -56 -25 -56 7 0 24 16 37
35 l24 36 25 -36 c14 -19 31 -35 39 -35 18 0 17 2 -17 45 -31 39 -31 41 8 93
19 25 21 32 9 32 -9 0 -26 -14 -38 -32 l-23 -31 -26 31 c-39 48 -57 39 -21
-10z"/>
<path d="M3743 4468 c2 -7 15 -46 28 -85 12 -40 28 -73 35 -73 11 0 44 90 44
121 0 25 15 -4 31 -59 22 -81 40 -78 68 10 13 40 26 79 28 86 3 6 -1 12 -8 12
-8 0 -23 -28 -35 -68 l-21 -67 -19 65 c-26 84 -45 89 -63 18 -21 -84 -26 -86
-47 -14 -11 40 -24 66 -32 66 -8 0 -12 -6 -9 -12z"/>
<path d="M4020 4395 c0 -69 3 -85 15 -85 12 0 15 16 15 85 0 69 -3 85 -15 85
-12 0 -15 -16 -15 -85z"/>
<path d="M4525 4456 c-36 -36 -35 -97 2 -126 28 -22 83 -25 90 -4 2 6 -7 9
-24 7 -42 -6 -67 18 -67 62 0 44 25 68 67 62 17 -2 26 1 24 7 -2 6 -18 12 -35
14 -23 2 -38 -4 -57 -22z"/>
<path d="M4885 4455 c-52 -51 -16 -145 55 -145 44 0 80 39 80 85 0 46 -36 85
-80 85 -19 0 -40 -9 -55 -25z m87 -7 c16 -13 21 -32 19 -76 -1 -31 -42 -49
-76 -34 -21 10 -25 18 -25 56 0 32 5 48 18 55 23 14 45 13 64 -1z"/>
<path d="M5076 4464 c-29 -28 -14 -74 24 -74 9 0 25 -6 35 -14 29 -21 2 -49
-42 -44 -20 3 -32 0 -30 -6 5 -16 62 -19 87 -6 16 9 20 19 18 42 -2 26 -9 33
-38 43 -24 8 -35 18 -35 31 0 15 7 19 38 19 39 0 48 9 21 19 -28 11 -62 6 -78
-10z"/>
<path d="M5235 4455 c-36 -35 -35 -96 2 -125 28 -22 93 -25 100 -4 2 6 -10 8
-31 6 -25 -3 -40 2 -55 17 -33 33 -25 41 39 41 65 0 72 8 49 53 -24 45 -67 50
-104 12z m79 -17 c14 -24 5 -30 -43 -26 -41 3 -41 3 -25 26 18 26 51 26 68 0z"/>
<path d="M5400 4395 c0 -50 4 -85 10 -85 6 0 10 26 10 58 0 66 21 96 62 90 21
-3 23 -8 26 -75 2 -56 6 -73 17 -73 22 0 21 133 -1 154 -18 19 -47 20 -77 5
-16 -9 -22 -9 -25 0 -2 6 -8 11 -13 11 -5 0 -9 -38 -9 -85z"/>
<path d="M5685 4455 c-52 -51 -16 -145 55 -145 44 0 80 39 80 85 0 46 -36 85
-80 85 -19 0 -40 -9 -55 -25z m87 -7 c16 -13 21 -32 19 -76 -1 -31 -42 -49
-76 -34 -21 10 -25 18 -25 56 0 32 5 48 18 55 23 14 45 13 64 -1z"/>
<path d="M5870 4355 c0 -77 4 -125 10 -125 6 0 10 20 10 45 l0 45 39 -6 c34
-5 43 -3 65 19 66 66 -5 179 -85 137 -13 -7 -19 -7 -19 0 0 5 -4 10 -10 10 -6
0 -10 -48 -10 -125z m108 93 c17 -17 15 -84 -4 -102 -18 -19 -38 -20 -65 -6
-26 14 -27 94 -1 109 23 14 55 14 70 -1z"/>
<path d="M6085 4455 c-36 -35 -35 -96 2 -125 28 -22 93 -25 100 -4 2 6 -10 8
-31 6 -25 -3 -40 2 -55 17 -33 33 -25 41 39 41 65 0 72 8 49 53 -24 45 -67 50
-104 12z m79 -17 c14 -24 5 -30 -43 -26 -41 3 -41 3 -25 26 18 26 51 26 68 0z"/>
<path d="M6250 4395 c0 -50 4 -85 10 -85 6 0 10 26 10 58 0 62 18 92 53 92 9
0 17 5 17 10 0 13 -16 13 -43 -1 -16 -9 -22 -9 -25 0 -2 6 -8 11 -13 11 -5 0
-9 -38 -9 -85z"/>
<path d="M6383 4473 c-26 -10 -12 -18 26 -15 32 3 41 0 51 -17 15 -29 7 -39
-28 -33 -44 6 -72 -13 -72 -48 0 -37 24 -50 84 -48 l46 2 0 68 c0 58 -3 69
-22 82 -22 16 -60 20 -85 9z m82 -108 c0 -29 -50 -44 -72 -22 -14 13 -14 19
-3 32 19 23 75 16 75 -10z"/>
<path d="M6550 4395 c0 -50 4 -85 10 -85 6 0 10 26 10 58 0 66 21 96 62 90 21
-3 23 -8 26 -75 2 -56 6 -73 17 -73 22 0 21 133 -1 154 -18 19 -47 20 -77 5
-16 -9 -22 -9 -25 0 -2 6 -8 11 -13 11 -5 0 -9 -38 -9 -85z"/>
<path d="M6950 4330 c0 -13 7 -20 20 -20 13 0 20 7 20 20 0 13 -7 20 -20 20
-13 0 -20 -7 -20 -20z"/>
</g>
</svg>
